<svg id="svg" version="1.1" xmlns="http://www.w3.org/2000/svg" xmlns:xlink="http://www.w3.org/1999/xlink" width="400" height="457.14285714285717" viewBox="0, 0, 400,457.14285714285717"><g id="svgg"><path id="path0" d="M183.406 86.390 C 183.273 86.605,183.193 91.467,183.227 97.195 C 183.295 108.458,183.283 108.523,181.117 108.957 C 180.422 109.096,179.571 109.461,179.226 109.768 C 178.882 110.074,177.856 110.524,176.947 110.766 C 176.037 111.008,175.070 111.474,174.798 111.803 C 174.525 112.131,173.959 112.400,173.539 112.400 C 173.119 112.400,171.746 112.827,170.488 113.349 C 169.230 113.871,167.548 114.415,166.751 114.557 C 165.955 114.700,164.892 115.173,164.390 115.608 C 163.888 116.044,163.187 116.400,162.833 116.400 C 162.478 116.400,161.526 116.755,160.717 117.188 C 159.908 117.622,158.381 118.187,157.323 118.445 C 156.265 118.702,155.130 119.137,154.800 119.412 C 154.470 119.686,153.570 120.031,152.800 120.178 C 152.030 120.325,150.500 120.865,149.400 121.379 C 147.351 122.335,145.267 123.279,141.874 124.788 C 140.814 125.259,139.058 125.749,137.970 125.878 C 136.883 126.007,135.601 126.452,135.123 126.867 C 134.644 127.282,133.791 127.734,133.226 127.872 C 132.662 128.009,131.771 128.455,131.246 128.861 C 130.721 129.267,129.904 129.600,129.431 129.600 C 128.957 129.600,127.856 129.969,126.985 130.420 C 126.113 130.870,124.531 131.408,123.469 131.615 C 122.407 131.822,121.077 132.353,120.515 132.796 C 119.952 133.238,119.219 133.600,118.886 133.600 C 118.553 133.600,117.362 134.031,116.240 134.558 C 112.692 136.223,110.247 137.144,108.711 137.392 C 107.892 137.524,107.082 137.881,106.911 138.185 C 106.740 138.489,105.932 139.517,105.115 140.469 C 102.962 142.980,101.200 145.272,101.200 145.562 C 101.200 145.701,100.411 146.637,99.447 147.643 C 98.483 148.649,97.557 149.906,97.390 150.436 C 97.223 150.966,96.760 151.760,96.362 152.200 C 95.965 152.640,94.896 153.810,93.989 154.800 C 93.081 155.790,92.127 157.078,91.869 157.662 C 91.410 158.701,88.685 162.075,86.900 163.815 C 86.405 164.297,86.000 164.902,86.000 165.160 C 86.000 165.417,85.732 166.037,85.405 166.537 C 84.659 167.674,84.464 227.426,85.202 228.803 C 85.686 229.708,86.312 229.874,90.270 230.149 C 91.848 230.259,93.680 230.627,94.339 230.969 C 94.999 231.310,96.857 231.706,98.469 231.850 C 100.081 231.994,101.886 232.356,102.480 232.656 C 104.221 233.533,106.132 233.394,105.614 232.426 C 105.338 231.911,105.200 220.649,105.200 198.698 C 105.200 161.866,105.161 162.430,107.730 161.663 C 111.745 160.464,114.271 159.977,118.289 159.626 C 121.169 159.374,123.130 159.002,123.762 158.588 C 124.340 158.209,126.230 157.804,128.334 157.606 C 130.308 157.421,132.344 157.005,132.861 156.682 C 133.377 156.358,135.270 155.979,137.067 155.840 C 138.864 155.701,140.963 155.324,141.731 155.003 C 142.500 154.682,145.260 154.217,147.864 153.969 C 151.006 153.671,153.090 153.264,154.054 152.760 C 155.072 152.228,156.334 152.000,158.258 152.000 C 160.422 152.000,161.406 151.787,162.885 151.000 C 164.396 150.195,165.336 150.000,167.693 150.000 C 169.667 150.000,170.905 149.802,171.491 149.392 C 172.431 148.733,176.917 148.032,180.322 148.012 C 181.540 148.005,183.164 147.672,184.135 147.230 C 185.065 146.806,186.990 146.342,188.413 146.199 C 189.836 146.055,191.843 145.592,192.874 145.169 C 193.920 144.740,195.694 144.400,196.888 144.400 C 198.065 144.400,200.085 144.028,201.378 143.574 C 202.914 143.034,205.197 142.673,207.964 142.532 C 210.999 142.377,212.633 142.099,213.729 141.549 C 214.573 141.126,216.747 140.632,218.584 140.446 C 220.516 140.250,222.301 139.834,222.844 139.454 C 223.358 139.094,224.524 138.800,225.435 138.800 C 226.347 138.800,229.052 138.368,231.446 137.839 C 233.841 137.311,237.295 136.758,239.122 136.610 C 240.983 136.459,243.182 136.006,244.122 135.579 C 245.045 135.160,246.535 134.814,247.433 134.809 C 248.332 134.804,249.184 134.682,249.328 134.538 C 249.634 134.232,246.814 131.641,246.149 131.617 C 245.901 131.607,245.463 131.317,245.176 130.971 C 244.889 130.625,244.010 130.013,243.223 129.612 C 242.436 129.210,241.164 128.235,240.396 127.445 C 239.628 126.655,238.810 126.007,238.579 126.004 C 238.001 125.998,234.967 123.732,233.140 121.941 C 232.311 121.129,231.237 120.339,230.753 120.185 C 230.269 120.032,228.905 119.117,227.721 118.153 C 226.537 117.189,225.408 116.400,225.211 116.400 C 225.015 116.400,224.744 116.053,224.609 115.628 C 224.472 115.195,223.846 114.742,223.186 114.597 C 222.539 114.455,221.909 114.177,221.787 113.979 C 221.665 113.781,220.567 112.957,219.347 112.147 C 218.127 111.337,216.921 110.343,216.668 109.937 C 216.415 109.532,216.006 109.200,215.759 109.200 C 215.307 109.200,212.864 107.469,211.421 106.125 C 210.993 105.726,210.171 105.130,209.596 104.800 C 207.126 103.384,205.600 102.296,205.600 101.951 C 205.600 101.747,205.195 101.401,204.700 101.182 C 204.205 100.962,203.080 100.237,202.200 99.569 C 201.320 98.902,200.015 97.988,199.300 97.538 C 198.585 97.089,198.000 96.581,198.000 96.409 C 198.000 96.237,197.460 95.873,196.800 95.600 C 196.140 95.327,195.600 94.963,195.600 94.791 C 195.600 94.619,194.940 94.056,194.134 93.540 C 193.327 93.023,192.138 92.257,191.490 91.838 C 190.843 91.419,189.748 90.547,189.057 89.901 C 188.365 89.254,187.140 88.300,186.334 87.779 C 185.527 87.258,184.751 86.645,184.610 86.416 C 184.287 85.893,183.721 85.881,183.406 86.390 M301.017 126.292 C 300.586 126.401,299.839 126.749,299.356 127.065 C 298.874 127.381,297.157 127.733,295.540 127.847 C 293.923 127.961,291.880 128.382,291.000 128.782 C 290.120 129.182,288.050 129.624,286.400 129.765 C 284.750 129.905,282.320 130.281,281.000 130.600 C 279.680 130.919,276.442 131.376,273.804 131.615 C 270.639 131.902,268.785 132.252,268.351 132.645 C 267.966 132.992,266.303 133.384,264.347 133.588 C 262.506 133.779,260.460 134.219,259.800 134.566 C 259.140 134.912,257.772 135.196,256.760 135.198 C 255.748 135.199,254.353 135.398,253.660 135.639 L 252.400 136.078 252.400 195.230 L 252.400 254.382 251.493 254.976 C 250.440 255.666,244.408 255.230,241.200 254.232 C 240.210 253.923,237.973 253.565,236.228 253.435 C 234.484 253.305,232.659 252.938,232.174 252.620 C 231.574 252.227,229.126 251.902,224.545 251.609 C 218.194 251.203,213.981 250.683,213.218 250.211 C 213.033 250.097,210.570 249.806,207.745 249.564 C 204.919 249.323,201.886 248.888,201.004 248.598 C 200.122 248.308,197.870 247.952,196.000 247.807 C 194.130 247.662,191.564 247.196,190.298 246.772 C 189.033 246.347,186.937 246.000,185.641 246.000 C 182.330 246.000,175.374 245.248,174.082 244.750 C 173.487 244.520,170.930 244.180,168.400 243.994 C 165.870 243.807,162.720 243.309,161.400 242.885 C 160.058 242.455,157.174 242.008,154.858 241.872 C 152.580 241.738,150.457 241.413,150.141 241.151 C 149.806 240.873,146.598 240.448,142.482 240.136 C 138.587 239.841,134.950 239.434,134.400 239.231 C 133.850 239.029,131.060 238.660,128.200 238.412 C 125.340 238.164,122.190 237.777,121.200 237.552 C 117.609 236.735,115.742 236.415,112.674 236.092 C 108.249 235.627,108.132 236.108,111.753 239.869 C 117.284 245.615,120.400 249.255,120.400 249.970 C 120.400 250.220,120.657 250.524,120.971 250.644 C 121.285 250.765,122.172 251.671,122.941 252.659 C 123.710 253.646,125.568 255.812,127.070 257.472 C 128.571 259.132,129.963 260.830,130.161 261.245 C 130.360 261.660,130.670 262.000,130.851 262.000 C 131.032 262.000,131.436 262.495,131.750 263.100 C 132.064 263.705,133.504 265.460,134.948 267.000 C 136.393 268.540,137.581 269.906,137.588 270.035 C 137.594 270.164,138.455 271.178,139.500 272.289 C 140.545 273.400,141.976 275.095,142.680 276.055 C 143.385 277.015,144.956 278.880,146.173 280.200 C 147.389 281.520,148.587 283.089,148.835 283.687 C 149.083 284.284,149.627 284.882,150.043 285.014 C 150.459 285.146,150.800 285.414,150.800 285.611 C 150.800 285.807,151.217 286.380,151.727 286.884 C 153.113 288.253,160.400 297.053,160.400 297.357 C 160.400 297.590,161.244 298.530,164.929 302.400 C 165.453 302.950,165.997 303.726,166.138 304.125 C 166.945 306.409,167.200 303.544,167.200 292.190 C 167.200 280.206,167.212 280.022,168.048 279.574 C 169.217 278.949,172.828 279.447,175.769 280.639 C 177.072 281.168,178.544 281.600,179.040 281.600 C 179.537 281.600,180.238 281.896,180.600 282.257 C 180.961 282.618,182.085 283.069,183.098 283.258 C 184.110 283.447,185.244 283.878,185.616 284.215 C 185.988 284.552,187.413 285.008,188.783 285.228 C 190.152 285.449,191.673 285.891,192.162 286.212 C 192.652 286.533,193.940 286.910,195.026 287.050 C 196.112 287.191,197.360 287.619,197.800 288.003 C 198.240 288.387,199.320 288.829,200.200 288.984 C 201.080 289.140,202.080 289.519,202.423 289.826 C 202.765 290.133,204.385 290.648,206.023 290.972 C 207.660 291.295,209.947 291.929,211.104 292.380 C 212.262 292.831,213.493 293.200,213.841 293.200 C 214.189 293.200,214.931 293.560,215.491 294.000 C 216.050 294.440,216.894 294.800,217.365 294.800 C 217.836 294.800,218.633 295.088,219.136 295.440 C 219.639 295.793,221.197 296.321,222.599 296.614 C 224.001 296.907,225.564 297.408,226.074 297.726 C 226.583 298.045,227.782 298.422,228.737 298.563 C 229.692 298.705,231.170 299.176,232.021 299.611 C 232.872 300.045,233.893 300.400,234.290 300.400 C 234.687 300.400,235.660 300.747,236.452 301.172 C 237.244 301.596,238.591 302.069,239.446 302.221 C 241.565 302.601,247.957 304.673,249.262 305.405 C 250.650 306.183,252.666 306.169,253.108 305.378 C 253.300 305.036,253.925 304.451,254.498 304.078 C 256.693 302.649,262.280 298.005,267.800 293.019 C 268.900 292.026,270.140 291.100,270.556 290.962 C 270.971 290.824,272.231 289.811,273.356 288.711 C 275.692 286.424,275.595 286.510,279.600 283.246 C 281.250 281.901,282.885 280.531,283.234 280.201 C 283.582 279.870,284.067 279.600,284.311 279.600 C 284.555 279.600,285.010 279.235,285.323 278.789 C 285.635 278.342,287.221 276.970,288.846 275.739 C 290.471 274.507,292.198 273.117,292.685 272.650 C 293.171 272.182,294.046 271.440,294.627 271.000 C 296.373 269.680,298.322 267.963,301.667 264.800 L 304.839 261.800 304.919 194.104 C 304.986 138.044,304.908 126.374,304.467 126.204 C 303.843 125.965,302.133 126.008,301.017 126.292 M194.100 346.199 C 193.208 346.840,193.200 346.935,193.200 356.794 L 193.200 366.742 194.294 367.603 C 196.213 369.112,203.882 367.976,208.000 365.573 C 211.325 363.633,213.082 358.052,211.853 353.334 C 211.518 352.050,211.142 350.550,211.018 350.000 C 210.347 347.042,197.078 344.061,194.100 346.199 M262.600 346.197 C 261.940 346.509,260.985 346.772,260.477 346.782 C 258.623 346.818,256.003 349.918,255.384 352.807 C 253.805 360.174,256.053 366.211,260.677 367.022 C 261.515 367.169,262.599 367.540,263.086 367.845 C 264.082 368.469,265.839 368.584,266.171 368.046 C 266.292 367.852,267.567 367.470,269.006 367.199 C 270.814 366.858,271.747 366.472,272.025 365.953 C 272.247 365.539,272.683 365.200,272.995 365.200 C 273.307 365.200,273.730 364.615,273.934 363.900 C 274.138 363.185,274.705 361.610,275.193 360.400 C 276.689 356.692,275.491 351.038,272.598 348.152 C 270.771 346.329,264.795 345.161,262.600 346.197 M206.051 350.005 C 209.910 354.480,209.830 359.017,205.813 363.368 L 203.752 365.600 200.676 365.600 C 195.969 365.600,196.000 365.657,196.000 356.876 C 196.000 347.844,195.932 347.956,201.351 348.117 L 204.503 348.211 206.051 350.005 M268.566 349.444 C 272.192 351.738,273.668 357.695,271.429 360.995 C 270.895 361.782,270.400 362.563,270.329 362.730 C 268.446 367.160,260.274 365.308,258.466 360.040 C 256.010 352.882,262.777 345.782,268.566 349.444 M234.942 352.608 C 234.768 353.062,234.922 353.500,235.371 353.828 C 235.756 354.110,236.246 355.116,236.459 356.064 C 236.672 357.012,237.095 358.063,237.399 358.399 C 237.703 358.735,238.136 360.151,238.360 361.545 C 238.585 362.939,238.973 364.326,239.223 364.627 C 239.473 364.928,239.894 365.911,240.160 366.811 C 240.426 367.710,240.768 368.436,240.921 368.423 C 241.075 368.410,241.988 368.400,242.951 368.400 C 244.563 368.400,244.741 368.296,245.181 367.100 C 245.444 366.385,245.998 365.080,246.411 364.200 C 246.824 363.320,247.266 361.943,247.392 361.140 C 247.518 360.337,247.883 359.463,248.202 359.198 C 248.522 358.933,248.899 357.842,249.041 356.775 C 249.190 355.653,249.615 354.549,250.049 354.155 C 251.072 353.230,250.992 352.463,249.843 352.175 C 248.914 351.942,246.413 352.908,246.388 353.510 C 246.107 360.106,244.150 364.795,242.147 363.674 C 241.315 363.209,239.615 357.371,239.606 354.949 C 239.597 352.594,235.698 350.637,234.942 352.608 M219.588 354.336 C 215.598 358.223,216.811 365.911,221.619 367.205 C 222.470 367.434,223.274 367.797,223.407 368.011 C 223.715 368.510,225.879 368.519,226.186 368.023 C 226.314 367.816,227.224 367.525,228.209 367.378 C 231.521 366.881,230.477 366.000,226.577 366.000 C 223.232 366.000,223.128 365.971,221.977 364.711 C 219.615 362.124,220.524 361.200,225.430 361.200 C 231.792 361.200,232.883 360.444,231.159 357.229 C 230.742 356.449,230.400 355.619,230.400 355.384 C 230.400 353.771,227.768 352.400,224.669 352.400 L 221.576 352.400 219.588 354.336 M280.581 352.905 C 279.924 354.617,280.623 376.194,281.340 376.332 C 283.578 376.762,284.894 376.020,284.631 374.474 C 283.387 367.151,284.404 364.940,288.032 367.082 C 289.327 367.848,294.430 367.310,294.742 366.375 C 294.827 366.120,295.325 365.539,295.848 365.083 C 296.747 364.302,296.800 364.000,296.800 359.688 L 296.800 355.121 295.500 353.868 C 293.825 352.252,288.200 351.892,288.200 353.400 C 288.200 354.007,288.508 354.230,289.475 354.323 C 294.617 354.821,294.733 365.600,289.596 365.600 C 288.993 365.600,287.975 365.705,287.334 365.833 C 286.214 366.057,286.139 365.978,285.467 363.847 C 285.083 362.626,284.595 361.521,284.384 361.390 C 283.779 361.016,283.936 358.551,284.600 358.000 C 284.930 357.726,285.200 357.254,285.200 356.951 C 285.200 356.648,285.566 356.034,286.014 355.586 L 286.829 354.771 285.463 354.201 C 284.712 353.887,283.991 353.353,283.861 353.015 C 283.571 352.259,280.864 352.168,280.581 352.905 M302.453 353.786 C 299.668 356.670,301.145 359.002,307.248 361.357 C 308.429 361.813,308.735 362.165,308.903 363.258 C 309.256 365.551,308.386 366.098,304.639 365.936 C 301.230 365.790,300.116 366.399,302.267 367.235 C 303.667 367.779,309.007 367.498,310.473 366.804 C 313.302 365.465,313.034 360.764,310.079 359.895 C 303.403 357.930,302.832 353.309,309.315 353.710 C 311.249 353.830,311.611 353.750,311.511 353.227 C 311.414 352.719,310.668 352.580,307.595 352.495 L 303.800 352.391 302.453 353.786 M227.662 355.060 C 229.958 357.259,228.353 359.600,224.550 359.600 C 220.604 359.600,219.565 357.459,222.272 354.907 C 224.041 353.238,225.814 353.289,227.662 355.060 " stroke="none" fill="#0779d3" fill-rule="evenodd"></path><path id="path1" d="M0.000 228.400 L 0.000 456.800 200.000 456.800 L 400.000 456.800 400.000 228.400 L 400.000 0.000 200.000 0.000 L 0.000 0.000 0.000 228.400 M186.213 86.112 C 187.306 86.834,189.010 88.184,190.000 89.112 C 190.990 90.041,192.000 90.800,192.245 90.800 C 192.490 90.800,193.390 91.334,194.245 91.986 C 196.372 93.609,196.952 94.039,200.400 96.552 C 202.050 97.754,203.760 99.027,204.200 99.381 C 204.640 99.734,206.350 100.995,208.000 102.183 C 209.650 103.372,211.273 104.581,211.607 104.872 C 211.941 105.162,213.426 106.199,214.907 107.176 C 216.388 108.153,217.600 109.069,217.600 109.212 C 217.600 109.354,218.797 110.265,220.260 111.235 C 221.723 112.206,223.478 113.406,224.160 113.901 C 224.842 114.397,226.030 115.250,226.800 115.797 C 227.570 116.344,228.646 117.108,229.191 117.496 C 229.737 117.883,230.502 118.515,230.891 118.900 C 231.281 119.285,231.861 119.600,232.180 119.600 C 232.499 119.600,232.904 119.843,233.080 120.139 C 233.477 120.808,238.083 124.397,239.532 125.167 C 240.119 125.479,240.780 125.952,241.000 126.220 C 241.220 126.487,242.390 127.373,243.600 128.188 C 244.810 129.004,245.944 129.925,246.120 130.235 C 246.296 130.546,246.627 130.800,246.857 130.800 C 247.270 130.800,248.429 131.615,250.922 133.660 C 252.159 134.674,252.284 134.696,253.808 134.169 C 254.683 133.866,256.840 133.415,258.600 133.166 C 263.159 132.523,265.096 132.151,267.600 131.437 C 268.810 131.092,270.542 130.807,271.450 130.805 C 272.357 130.802,273.851 130.535,274.769 130.211 C 275.688 129.887,278.366 129.352,280.720 129.023 C 283.074 128.694,285.720 128.250,286.600 128.036 C 289.287 127.382,292.973 126.800,294.424 126.800 C 295.181 126.800,296.747 126.440,297.904 126.000 C 300.314 125.084,305.526 124.886,306.320 125.680 C 306.690 126.050,306.800 141.792,306.800 194.105 L 306.800 262.049 304.441 264.325 C 303.143 265.576,301.393 267.140,300.552 267.800 C 299.710 268.460,298.082 269.810,296.935 270.800 C 295.788 271.790,294.365 272.960,293.774 273.400 C 293.183 273.840,292.137 274.718,291.449 275.351 C 290.163 276.537,286.390 279.491,285.258 280.200 C 284.906 280.420,284.434 280.806,284.209 281.059 C 283.984 281.311,282.450 282.623,280.800 283.975 C 276.251 287.701,273.943 289.706,273.057 290.700 C 272.616 291.195,272.063 291.600,271.828 291.600 C 271.592 291.600,270.644 292.291,269.721 293.135 C 266.934 295.682,264.491 297.600,264.033 297.600 C 263.795 297.600,263.600 297.767,263.600 297.971 C 263.600 298.381,263.003 298.990,261.414 300.200 C 260.836 300.640,259.847 301.450,259.216 302.000 C 252.819 307.577,251.872 307.933,247.600 306.368 C 246.390 305.924,244.430 305.288,243.245 304.954 C 242.060 304.620,240.710 304.106,240.245 303.813 C 239.780 303.520,238.422 303.077,237.227 302.828 C 236.032 302.580,234.862 302.218,234.627 302.024 C 234.392 301.830,233.030 301.369,231.600 301.000 C 230.170 300.631,228.820 300.188,228.600 300.017 C 228.380 299.845,227.210 299.478,226.000 299.202 C 224.790 298.925,223.499 298.436,223.131 298.115 C 222.763 297.795,221.683 297.435,220.731 297.316 C 219.779 297.197,218.460 296.784,217.800 296.398 C 217.140 296.013,215.610 295.472,214.400 295.196 C 213.190 294.921,212.010 294.546,211.777 294.363 C 211.544 294.180,210.374 293.771,209.177 293.454 C 207.980 293.137,206.460 292.591,205.800 292.241 C 205.140 291.891,204.150 291.603,203.600 291.601 C 203.050 291.599,202.060 291.273,201.400 290.877 C 200.740 290.481,199.120 289.912,197.800 289.612 C 196.480 289.312,194.923 288.831,194.341 288.544 C 193.758 288.257,192.411 287.827,191.347 287.588 C 190.283 287.350,189.140 286.919,188.806 286.631 C 188.473 286.342,187.422 285.988,186.472 285.844 C 185.521 285.700,184.350 285.324,183.870 285.009 C 183.389 284.694,181.884 284.177,180.525 283.860 C 179.167 283.543,177.642 282.995,177.138 282.642 C 176.634 282.289,175.764 282.000,175.205 282.000 C 174.646 282.000,173.498 281.630,172.654 281.178 C 171.776 280.707,170.580 280.408,169.860 280.478 L 168.600 280.600 168.557 293.375 C 168.516 305.513,168.476 306.164,167.757 306.447 C 166.560 306.917,166.429 306.866,165.694 305.658 C 165.312 305.030,164.280 303.698,163.400 302.698 C 162.520 301.698,161.350 300.291,160.800 299.572 C 160.250 298.853,159.394 297.836,158.897 297.311 C 158.097 296.466,157.106 295.271,152.885 290.061 C 152.288 289.324,150.990 287.835,150.000 286.752 C 148.091 284.663,146.796 283.157,143.848 279.600 C 142.845 278.390,141.659 277.021,141.212 276.558 C 140.765 276.095,140.400 275.593,140.400 275.443 C 140.400 275.294,139.590 274.326,138.600 273.292 C 137.610 272.259,136.800 271.298,136.800 271.155 C 136.800 271.013,135.934 269.989,134.876 268.880 C 133.818 267.770,132.423 266.094,131.776 265.156 C 131.129 264.217,130.240 263.064,129.800 262.594 C 126.116 258.658,123.932 256.108,122.600 254.189 C 122.160 253.555,121.305 252.551,120.700 251.957 C 120.095 251.364,119.600 250.747,119.600 250.585 C 119.600 250.424,119.195 249.901,118.700 249.424 C 117.295 248.070,114.726 245.144,113.547 243.556 C 112.958 242.761,111.469 241.096,110.238 239.856 C 109.007 238.615,108.000 237.491,108.000 237.358 C 108.000 236.225,105.719 234.580,103.846 234.362 C 102.721 234.230,100.720 233.848,99.400 233.511 C 98.080 233.174,95.560 232.688,93.800 232.430 C 89.102 231.742,84.954 230.801,84.204 230.252 C 83.602 229.812,83.549 227.053,83.586 198.029 L 83.625 166.286 84.512 165.168 C 85.001 164.553,86.030 163.187,86.800 162.133 C 88.433 159.896,89.070 159.099,90.300 157.747 C 90.795 157.204,91.200 156.603,91.200 156.414 C 91.200 156.224,91.925 155.288,92.812 154.334 C 93.699 153.380,94.693 152.105,95.022 151.500 C 95.351 150.895,95.784 150.400,95.983 150.400 C 96.183 150.400,96.473 149.995,96.629 149.500 C 96.784 149.005,97.291 148.199,97.756 147.710 C 99.266 146.118,99.931 145.277,100.429 144.330 C 100.699 143.819,101.259 143.040,101.675 142.600 C 102.091 142.160,103.331 140.675,104.430 139.300 C 105.530 137.925,106.648 136.798,106.915 136.796 C 107.182 136.794,108.300 136.350,109.400 135.809 C 110.500 135.268,111.671 134.819,112.003 134.813 C 112.335 134.806,113.415 134.374,114.403 133.854 C 115.391 133.334,116.857 132.790,117.660 132.644 C 118.463 132.498,119.336 132.118,119.600 131.800 C 119.864 131.482,120.734 131.099,121.532 130.949 C 122.330 130.799,123.527 130.345,124.192 129.940 C 124.856 129.535,125.670 129.196,126.000 129.188 C 126.330 129.180,127.320 128.825,128.200 128.400 C 129.080 127.975,129.935 127.621,130.099 127.614 C 130.263 127.606,131.541 127.060,132.938 126.400 C 134.335 125.740,135.823 125.200,136.245 125.200 C 136.667 125.200,137.684 124.840,138.504 124.400 C 139.325 123.960,140.241 123.600,140.539 123.600 C 140.837 123.600,141.888 123.171,142.875 122.646 C 143.861 122.122,145.283 121.558,146.034 121.394 C 146.785 121.230,147.829 120.759,148.354 120.348 C 148.879 119.937,149.780 119.600,150.357 119.600 C 150.934 119.600,152.252 119.150,153.285 118.600 C 154.318 118.050,155.363 117.600,155.607 117.600 C 155.851 117.600,157.035 117.150,158.237 116.600 C 159.440 116.050,160.643 115.594,160.912 115.587 C 161.180 115.581,162.300 115.132,163.400 114.591 C 164.500 114.050,165.783 113.606,166.251 113.604 C 166.719 113.602,167.310 113.350,167.563 113.044 C 167.817 112.739,168.784 112.295,169.712 112.059 C 170.640 111.822,172.113 111.262,172.985 110.814 C 173.856 110.366,174.954 110.000,175.423 110.000 C 175.893 110.000,176.677 109.654,177.164 109.231 C 177.652 108.808,178.718 108.349,179.534 108.211 C 182.329 107.739,182.188 108.332,182.312 96.515 C 182.411 87.082,182.504 85.740,183.089 85.300 C 183.983 84.627,183.953 84.619,186.213 86.112 M248.200 135.881 C 247.540 135.969,246.460 136.288,245.800 136.589 C 245.140 136.890,243.250 137.252,241.600 137.394 C 239.950 137.535,237.880 137.902,237.000 138.210 C 235.441 138.756,234.196 138.994,223.400 140.808 C 220.540 141.289,217.570 141.935,216.800 142.244 C 216.030 142.553,213.679 142.980,211.574 143.192 C 209.470 143.405,207.091 143.853,206.287 144.189 C 205.483 144.525,204.235 144.802,203.513 144.805 C 202.791 144.808,200.490 145.176,198.400 145.623 C 196.310 146.070,193.160 146.684,191.400 146.986 C 189.640 147.289,187.660 147.747,187.000 148.005 C 186.340 148.263,184.041 148.630,181.890 148.821 C 179.529 149.030,177.633 149.412,177.101 149.784 C 176.618 150.123,175.435 150.400,174.473 150.400 C 173.510 150.400,171.795 150.648,170.662 150.950 C 168.236 151.598,162.274 152.673,159.323 152.995 C 158.181 153.119,156.651 153.467,155.923 153.767 C 155.195 154.067,153.250 154.442,151.600 154.602 C 149.950 154.761,148.265 155.068,147.855 155.284 C 147.446 155.499,145.106 156.014,142.655 156.428 C 140.205 156.842,136.940 157.434,135.400 157.745 C 133.860 158.056,131.447 158.441,130.037 158.601 C 128.628 158.762,126.918 159.124,126.237 159.407 C 125.557 159.689,123.425 160.112,121.501 160.346 C 119.577 160.579,117.660 160.954,117.242 161.177 C 116.824 161.401,114.735 161.799,112.600 162.061 C 110.097 162.369,108.413 162.785,107.859 163.234 L 107.000 163.929 106.891 197.574 C 106.766 236.234,106.550 233.700,110.005 234.084 C 111.410 234.241,113.019 234.552,113.580 234.775 C 114.141 234.998,116.490 235.368,118.800 235.596 C 121.110 235.825,123.990 236.192,125.200 236.412 C 126.410 236.632,130.190 237.147,133.600 237.557 C 137.010 237.967,140.307 238.504,140.926 238.751 C 141.545 238.998,143.255 239.212,144.726 239.226 C 146.197 239.241,148.930 239.504,150.800 239.812 C 156.100 240.684,159.164 241.150,162.200 241.547 C 170.854 242.677,177.639 243.655,179.400 244.027 C 180.500 244.260,184.010 244.703,187.200 245.013 C 190.390 245.322,193.990 245.848,195.200 246.181 C 196.410 246.513,199.470 246.979,202.000 247.215 C 206.629 247.646,209.310 248.022,213.000 248.755 C 214.100 248.973,216.053 249.163,217.340 249.176 C 218.626 249.189,220.246 249.457,220.940 249.771 C 221.639 250.088,224.716 250.526,227.853 250.755 C 230.963 250.983,234.203 251.431,235.053 251.752 C 235.904 252.072,238.040 252.447,239.800 252.584 C 241.560 252.722,244.676 253.116,246.724 253.460 C 248.771 253.805,250.571 253.962,250.724 253.810 C 251.059 253.475,251.327 138.743,250.997 136.900 C 250.756 135.555,250.723 135.543,248.200 135.881 M204.409 344.557 C 208.815 345.611,210.679 347.037,212.417 350.683 C 213.790 353.566,214.117 359.273,213.018 361.200 C 212.705 361.750,212.176 362.786,211.843 363.503 C 210.067 367.330,205.020 369.600,198.287 369.600 C 194.248 369.600,193.133 369.476,192.629 368.971 C 191.656 367.999,191.687 345.809,192.662 344.731 C 193.486 343.821,200.876 343.712,204.409 344.557 M270.210 345.295 C 272.273 346.272,274.800 348.291,274.800 348.963 C 274.800 349.175,275.154 349.725,275.586 350.185 C 277.540 352.265,277.507 361.222,275.538 363.426 C 275.132 363.880,274.798 364.420,274.796 364.626 C 274.776 366.374,268.546 369.600,265.190 369.600 C 258.005 369.600,252.930 364.025,253.297 356.535 C 253.632 349.714,255.573 347.205,262.800 344.257 C 263.996 343.769,268.243 344.364,270.210 345.295 M106.095 345.332 C 106.261 345.589,106.569 346.406,106.779 347.147 C 106.990 347.888,107.456 348.819,107.815 349.216 C 108.174 349.613,108.566 350.717,108.685 351.669 C 108.805 352.621,109.229 353.760,109.627 354.200 C 110.026 354.640,110.548 355.874,110.787 356.941 C 111.026 358.008,111.461 359.358,111.754 359.941 C 112.046 360.523,112.400 361.600,112.539 362.332 C 112.679 363.065,113.155 364.125,113.596 364.686 C 114.543 365.890,114.652 368.093,113.800 368.800 C 112.846 369.592,111.860 368.354,110.265 364.359 C 109.614 362.728,108.699 362.400,104.800 362.400 C 100.220 362.400,98.606 363.538,97.217 367.749 C 96.725 369.239,96.523 369.376,95.433 368.957 C 94.480 368.592,94.651 366.400,95.800 364.238 C 96.350 363.204,96.800 361.961,96.800 361.476 C 96.800 360.991,97.250 359.748,97.800 358.715 C 98.350 357.682,98.800 356.506,98.800 356.103 C 98.800 355.699,99.158 354.666,99.596 353.807 C 100.034 352.948,100.507 351.605,100.646 350.822 C 100.785 350.040,101.223 349.040,101.620 348.600 C 102.016 348.160,102.469 347.260,102.626 346.600 C 103.141 344.426,105.057 343.726,106.095 345.332 M103.421 349.700 C 103.336 349.975,103.153 351.005,103.014 351.990 C 102.875 352.974,102.501 354.067,102.183 354.419 C 100.967 355.763,100.380 358.761,101.242 359.223 C 104.853 361.155,109.683 358.731,107.663 356.000 C 107.223 355.404,106.649 354.125,106.389 353.158 C 105.501 349.856,103.935 348.032,103.421 349.700 M199.326 349.603 C 197.429 350.367,196.603 361.774,198.331 363.338 C 199.656 364.537,205.200 363.769,205.200 362.386 C 205.200 362.191,205.593 361.665,206.074 361.217 C 207.038 360.319,207.518 356.819,207.032 354.230 C 206.401 350.869,202.299 348.405,199.326 349.603 M227.800 351.355 C 231.266 352.996,232.415 354.576,232.678 358.066 C 232.995 362.245,232.796 362.400,227.129 362.400 C 223.268 362.400,222.745 362.479,222.957 363.033 C 223.091 363.381,223.200 363.921,223.200 364.233 C 223.200 364.679,223.948 364.800,226.724 364.800 C 230.941 364.800,232.041 365.313,231.302 366.935 C 228.858 372.300,217.729 369.400,216.412 363.056 C 214.692 354.774,221.106 348.185,227.800 351.355 M238.520 351.056 C 240.101 351.866,240.384 352.278,240.403 353.800 C 240.411 354.460,240.774 355.785,241.209 356.744 C 241.644 357.703,242.000 358.816,242.000 359.218 C 242.000 360.739,242.850 362.298,243.189 361.400 C 243.888 359.552,245.199 354.893,245.404 353.532 C 245.575 352.391,245.938 351.880,247.035 351.232 C 250.759 349.035,252.937 351.269,251.021 355.319 C 250.459 356.506,250.000 357.808,250.000 358.212 C 250.000 358.617,249.658 359.679,249.240 360.574 C 248.823 361.468,248.190 363.100,247.834 364.200 C 246.384 368.684,245.712 369.385,242.739 369.517 L 240.099 369.634 239.211 368.129 C 238.417 366.783,237.508 364.151,235.828 358.329 C 235.531 357.301,234.998 355.878,234.644 355.168 C 232.820 351.511,234.965 349.235,238.520 351.056 M262.733 350.728 C 261.984 351.033,259.627 353.868,259.550 354.555 C 259.189 357.797,260.386 361.566,262.199 362.894 C 263.220 363.642,267.951 363.219,268.831 362.300 C 273.869 357.045,269.160 348.110,262.733 350.728 M284.920 351.359 C 286.431 352.288,286.448 352.289,287.897 351.550 C 291.225 349.854,293.134 350.256,296.187 353.298 L 297.774 354.880 297.757 359.817 L 297.740 364.754 296.170 366.290 C 293.007 369.384,289.555 370.368,287.711 368.700 C 286.214 367.346,286.000 367.775,286.000 372.120 C 286.000 376.972,285.856 377.200,282.800 377.200 C 279.449 377.200,279.600 377.812,279.600 364.209 C 279.600 349.507,280.068 348.377,284.920 351.359 M310.281 350.877 C 312.150 351.675,312.800 352.441,312.800 353.848 C 312.800 355.546,311.513 356.408,310.435 355.432 C 309.519 354.603,307.361 354.604,307.043 355.433 C 306.552 356.713,306.835 357.179,308.353 357.587 C 309.208 357.818,310.115 358.257,310.370 358.564 C 310.624 358.870,311.230 359.224,311.716 359.350 C 313.569 359.830,315.020 364.196,313.659 365.196 C 313.506 365.308,313.077 365.879,312.705 366.464 C 311.244 368.762,305.591 370.339,302.726 369.247 C 301.698 368.855,299.600 366.895,299.600 366.327 C 299.600 365.511,301.654 363.894,302.111 364.351 C 302.752 364.992,308.002 364.947,307.994 364.300 C 307.982 363.330,307.339 362.804,305.486 362.246 C 302.137 361.238,300.057 358.894,300.018 356.085 C 299.970 352.600,306.525 349.275,310.281 350.877 M129.287 351.831 C 129.589 352.495,129.622 353.050,129.378 353.390 C 127.509 355.999,126.261 357.893,125.958 358.580 C 125.759 359.031,124.965 360.210,124.193 361.200 C 123.420 362.190,122.501 363.630,122.149 364.400 C 121.798 365.170,121.311 365.925,121.067 366.078 C 120.181 366.634,121.247 366.905,125.283 367.150 C 129.050 367.379,129.400 367.468,129.400 368.200 C 129.400 369.116,119.978 369.628,117.870 368.826 C 116.366 368.255,118.682 363.500,122.700 358.911 C 123.195 358.346,123.600 357.650,123.600 357.364 C 123.600 357.079,123.926 356.610,124.324 356.323 C 126.655 354.642,125.839 353.746,121.939 353.704 C 118.286 353.665,117.633 353.323,118.322 351.811 C 119.052 350.210,128.556 350.227,129.287 351.831 M135.600 357.972 L 135.600 363.455 136.884 365.125 C 137.986 366.559,138.438 366.831,140.093 367.050 C 143.395 367.488,142.771 369.200,139.309 369.200 C 137.245 369.200,135.895 368.400,134.341 366.256 C 133.092 364.531,132.598 354.424,133.631 351.726 L 134.062 350.600 134.831 351.544 C 135.506 352.374,135.600 353.157,135.600 357.972 M173.020 351.152 C 173.229 351.345,174.068 351.717,174.884 351.977 C 176.084 352.361,176.600 352.881,177.584 354.697 C 180.165 359.462,178.903 360.800,171.830 360.800 C 166.962 360.800,166.424 361.102,167.246 363.377 C 168.484 366.801,172.817 368.346,175.016 366.148 C 175.966 365.197,176.127 365.156,176.688 365.717 C 178.769 367.798,171.781 370.353,168.800 368.600 C 168.250 368.277,167.483 367.898,167.096 367.759 C 165.149 367.056,163.834 364.001,163.817 360.141 L 163.800 356.483 165.435 354.541 C 167.899 351.615,171.690 349.921,173.020 351.152 M147.011 359.821 C 147.154 366.194,147.082 367.520,146.554 368.326 L 145.928 369.281 144.842 368.241 C 144.245 367.668,143.451 367.200,143.078 367.200 C 142.142 367.200,142.227 366.213,143.221 365.549 C 144.373 364.779,144.779 362.558,144.790 356.980 C 144.800 351.947,145.185 350.614,146.304 351.733 C 146.705 352.133,146.886 354.209,147.011 359.821 M154.806 352.411 C 155.256 353.252,156.491 353.066,157.954 351.936 C 159.336 350.869,160.970 350.976,161.513 352.170 C 162.088 353.430,161.520 353.917,159.081 354.251 C 156.371 354.622,155.882 355.856,155.612 363.000 L 155.400 368.600 154.229 368.600 C 152.587 368.600,152.382 367.546,152.446 359.400 C 152.507 351.501,153.208 349.426,154.806 352.411 M169.479 353.761 C 167.741 354.530,166.498 356.790,167.436 357.476 C 168.479 358.239,174.545 358.190,175.189 357.413 C 176.984 355.250,172.539 352.407,169.479 353.761 M222.904 355.981 C 221.847 357.321,222.203 357.604,224.933 357.594 C 227.594 357.584,227.954 357.069,226.155 355.847 C 224.253 354.554,224.021 354.564,222.904 355.981 M287.312 356.281 C 284.966 356.734,285.182 363.269,287.559 363.791 C 291.196 364.590,293.565 360.820,291.560 357.423 C 290.700 355.964,289.967 355.767,287.312 356.281 " stroke="none" fill="#fbfbfb" fill-rule="evenodd"></path><path id="path2" d="M183.089 85.300 C 182.504 85.740,182.411 87.082,182.312 96.515 C 182.188 108.332,182.329 107.739,179.534 108.211 C 177.722 108.517,175.717 110.000,177.115 110.000 C 177.576 110.000,178.056 109.834,178.181 109.631 C 178.307 109.427,179.292 108.968,180.370 108.610 C 182.913 107.765,182.800 108.324,182.800 96.616 C 182.800 84.558,182.742 84.716,186.294 87.128 C 187.580 88.001,188.882 89.017,189.187 89.385 C 189.492 89.752,191.001 90.868,192.540 91.863 C 195.461 93.753,204.419 100.257,205.796 101.488 C 206.929 102.502,209.739 104.384,210.132 104.393 C 210.314 104.397,211.498 105.300,212.763 106.400 C 214.027 107.500,215.242 108.400,215.461 108.400 C 215.681 108.400,216.283 108.849,216.798 109.398 C 217.578 110.228,220.865 112.535,223.653 114.208 C 224.012 114.424,225.542 115.606,227.053 116.835 C 228.564 118.064,230.250 119.307,230.800 119.598 C 231.350 119.889,233.297 121.359,235.126 122.864 C 236.956 124.369,238.637 125.600,238.863 125.600 C 239.088 125.600,240.201 126.377,241.336 127.326 C 242.471 128.275,244.390 129.710,245.600 130.515 C 251.063 134.149,251.272 134.811,247.150 135.443 C 246.188 135.590,244.950 135.933,244.400 136.203 C 243.850 136.473,242.050 136.821,240.400 136.975 C 238.750 137.129,235.870 137.588,234.000 137.994 C 232.130 138.401,229.160 138.944,227.400 139.203 C 225.640 139.461,223.492 139.938,222.627 140.262 C 221.763 140.586,219.656 141.011,217.945 141.206 C 216.235 141.401,214.297 141.840,213.638 142.180 C 212.979 142.521,211.711 142.800,210.820 142.800 C 209.441 142.800,204.039 143.731,194.400 145.630 C 193.190 145.868,190.940 146.302,189.400 146.595 C 187.860 146.887,185.931 147.413,185.113 147.763 C 184.295 148.113,182.779 148.400,181.744 148.400 C 179.404 148.400,173.507 149.447,171.492 150.221 C 170.662 150.539,168.931 150.800,167.645 150.800 C 166.299 150.800,164.478 151.123,163.353 151.561 C 162.279 151.979,159.960 152.503,158.200 152.725 C 156.440 152.946,154.010 153.393,152.800 153.716 C 151.590 154.039,148.902 154.525,146.828 154.795 C 144.753 155.065,142.413 155.511,141.628 155.784 C 140.842 156.058,138.777 156.409,137.037 156.563 C 135.297 156.718,133.385 157.097,132.788 157.406 C 132.192 157.715,130.465 158.077,128.952 158.211 C 127.438 158.345,125.480 158.706,124.600 159.013 C 123.720 159.320,120.660 159.938,117.800 160.386 C 107.289 162.034,107.654 161.925,106.768 163.663 C 106.000 165.168,105.980 166.126,106.014 199.505 L 106.049 233.800 105.038 233.925 C 104.482 233.994,103.436 233.770,102.714 233.428 C 101.991 233.085,100.050 232.631,98.400 232.419 C 96.750 232.207,94.500 231.758,93.400 231.421 C 92.300 231.084,90.449 230.807,89.287 230.804 C 83.519 230.793,83.939 233.522,84.082 197.000 L 84.200 167.000 85.182 165.400 C 85.722 164.520,86.282 163.710,86.425 163.600 C 87.105 163.079,90.769 158.424,91.322 157.379 C 91.665 156.730,92.876 155.210,94.013 154.000 C 95.150 152.790,96.343 151.195,96.664 150.456 C 96.985 149.716,97.889 148.456,98.673 147.656 C 99.457 146.855,100.572 145.501,101.149 144.646 C 102.974 141.947,103.375 141.419,104.400 140.366 C 104.950 139.801,105.879 138.767,106.464 138.069 C 107.049 137.371,107.894 136.800,108.341 136.800 C 108.789 136.800,110.740 136.147,112.678 135.349 C 114.615 134.551,116.920 133.637,117.800 133.318 C 118.680 132.999,119.670 132.496,120.000 132.200 C 120.330 131.904,121.140 131.546,121.800 131.405 C 123.555 131.028,129.567 128.835,131.254 127.957 C 132.054 127.541,132.940 127.200,133.223 127.200 C 133.506 127.200,134.048 126.918,134.429 126.574 C 134.810 126.229,136.251 125.684,137.632 125.362 C 139.970 124.816,147.547 121.745,149.386 120.597 C 149.834 120.318,150.920 119.963,151.800 119.808 C 152.680 119.653,153.850 119.271,154.400 118.958 C 154.950 118.645,156.390 118.048,157.600 117.632 C 161.819 116.180,163.404 115.535,164.000 115.026 C 164.330 114.745,165.320 114.324,166.200 114.090 C 168.774 113.407,174.362 111.272,175.307 110.610 C 176.690 109.641,174.974 109.792,172.985 110.814 C 172.113 111.262,170.640 111.822,169.712 112.059 C 168.784 112.295,167.817 112.739,167.563 113.044 C 167.310 113.350,166.719 113.602,166.251 113.604 C 165.783 113.606,164.500 114.050,163.400 114.591 C 162.300 115.132,161.180 115.581,160.912 115.587 C 160.643 115.594,159.440 116.050,158.237 116.600 C 157.035 117.150,155.851 117.600,155.607 117.600 C 155.363 117.600,154.318 118.050,153.285 118.600 C 152.252 119.150,150.934 119.600,150.357 119.600 C 149.780 119.600,148.879 119.937,148.354 120.348 C 147.829 120.759,146.785 121.230,146.034 121.394 C 145.283 121.558,143.861 122.122,142.875 122.646 C 141.888 123.171,140.837 123.600,140.539 123.600 C 140.241 123.600,139.325 123.960,138.504 124.400 C 137.684 124.840,136.667 125.200,136.245 125.200 C 135.823 125.200,134.335 125.740,132.938 126.400 C 131.541 127.060,130.263 127.606,130.099 127.614 C 129.935 127.621,129.080 127.975,128.200 128.400 C 127.320 128.825,126.330 129.180,126.000 129.188 C 125.670 129.196,124.856 129.535,124.192 129.940 C 123.527 130.345,122.330 130.799,121.532 130.949 C 120.734 131.099,119.864 131.482,119.600 131.800 C 119.336 132.118,118.463 132.498,117.660 132.644 C 116.857 132.790,115.391 133.334,114.403 133.854 C 113.415 134.374,112.335 134.806,112.003 134.813 C 111.671 134.819,110.500 135.268,109.400 135.809 C 108.300 136.350,107.182 136.794,106.915 136.796 C 106.648 136.798,105.530 137.925,104.430 139.300 C 103.331 140.675,102.091 142.160,101.675 142.600 C 101.259 143.040,100.699 143.819,100.429 144.330 C 99.931 145.277,99.266 146.118,97.756 147.710 C 97.291 148.199,96.784 149.005,96.629 149.500 C 96.473 149.995,96.183 150.400,95.983 150.400 C 95.784 150.400,95.351 150.895,95.022 151.500 C 94.693 152.105,93.699 153.380,92.812 154.334 C 91.925 155.288,91.200 156.224,91.200 156.414 C 91.200 156.603,90.795 157.204,90.300 157.747 C 89.070 159.099,88.433 159.896,86.800 162.133 C 86.030 163.187,85.001 164.553,84.512 165.168 L 83.625 166.286 83.586 198.029 C 83.549 227.053,83.602 229.812,84.204 230.252 C 84.954 230.801,89.102 231.742,93.800 232.430 C 95.560 232.688,98.080 233.174,99.400 233.511 C 100.720 233.848,102.721 234.230,103.846 234.362 C 105.719 234.580,108.000 236.225,108.000 237.358 C 108.000 237.491,109.007 238.615,110.238 239.856 C 111.469 241.096,112.958 242.761,113.547 243.556 C 114.726 245.144,117.295 248.070,118.700 249.424 C 119.195 249.901,119.600 250.424,119.600 250.585 C 119.600 250.747,120.095 251.364,120.700 251.957 C 121.305 252.551,122.160 253.555,122.600 254.189 C 123.932 256.108,126.116 258.658,129.800 262.594 C 130.240 263.064,131.129 264.217,131.776 265.156 C 132.423 266.094,133.818 267.770,134.876 268.880 C 135.934 269.989,136.800 271.013,136.800 271.155 C 136.800 271.298,137.610 272.259,138.600 273.292 C 139.590 274.326,140.400 275.294,140.400 275.443 C 140.400 275.593,140.765 276.095,141.212 276.558 C 141.659 277.021,142.845 278.390,143.848 279.600 C 146.796 283.157,148.091 284.663,150.000 286.752 C 150.990 287.835,152.288 289.324,152.885 290.061 C 157.106 295.271,158.097 296.466,158.897 297.311 C 159.394 297.836,160.250 298.853,160.800 299.572 C 161.350 300.291,162.520 301.698,163.400 302.698 C 164.280 303.698,165.312 305.030,165.694 305.658 C 166.429 306.866,166.560 306.917,167.757 306.447 C 168.476 306.164,168.516 305.513,168.557 293.375 L 168.600 280.600 169.860 280.478 C 170.580 280.408,171.776 280.707,172.654 281.178 C 173.498 281.630,174.646 282.000,175.205 282.000 C 175.764 282.000,176.634 282.289,177.138 282.642 C 177.642 282.995,179.167 283.543,180.525 283.860 C 181.884 284.177,183.389 284.694,183.870 285.009 C 184.350 285.324,185.521 285.700,186.472 285.844 C 187.422 285.988,188.473 286.342,188.806 286.631 C 189.140 286.919,190.283 287.350,191.347 287.588 C 192.411 287.827,193.758 288.257,194.341 288.544 C 194.923 288.831,196.480 289.312,197.800 289.612 C 199.120 289.912,200.740 290.481,201.400 290.877 C 202.060 291.273,203.050 291.599,203.600 291.601 C 204.150 291.603,205.140 291.891,205.800 292.241 C 206.460 292.591,207.980 293.137,209.177 293.454 C 210.374 293.771,211.544 294.180,211.777 294.363 C 212.010 294.546,213.190 294.921,214.400 295.196 C 215.610 295.472,217.140 296.013,217.800 296.398 C 218.460 296.784,219.779 297.197,220.731 297.316 C 221.683 297.435,222.763 297.795,223.131 298.115 C 223.499 298.436,224.790 298.925,226.000 299.202 C 227.210 299.478,228.380 299.845,228.600 300.017 C 228.820 300.188,230.170 300.631,231.600 301.000 C 233.030 301.369,234.392 301.830,234.627 302.024 C 234.862 302.218,236.032 302.580,237.227 302.828 C 238.422 303.077,239.780 303.520,240.245 303.813 C 240.710 304.106,242.060 304.620,243.245 304.954 C 244.430 305.288,246.390 305.924,247.600 306.368 C 251.872 307.933,252.819 307.577,259.216 302.000 C 259.847 301.450,260.836 300.640,261.414 300.200 C 263.003 298.990,263.600 298.381,263.600 297.971 C 263.600 297.767,263.795 297.600,264.033 297.600 C 264.491 297.600,266.934 295.682,269.721 293.135 C 270.644 292.291,271.592 291.600,271.828 291.600 C 272.063 291.600,272.616 291.195,273.057 290.700 C 273.943 289.706,276.251 287.701,280.800 283.975 C 282.450 282.623,283.984 281.311,284.209 281.059 C 284.434 280.806,284.906 280.420,285.258 280.200 C 286.390 279.491,290.163 276.537,291.449 275.351 C 292.137 274.718,293.183 273.840,293.774 273.400 C 294.365 272.960,295.788 271.790,296.935 270.800 C 298.082 269.810,299.710 268.460,300.552 267.800 C 301.393 267.140,303.143 265.576,304.441 264.325 L 306.800 262.049 306.800 194.105 C 306.800 141.792,306.690 126.050,306.320 125.680 C 305.526 124.886,300.314 125.084,297.904 126.000 C 296.747 126.440,295.181 126.800,294.424 126.800 C 292.973 126.800,289.287 127.382,286.600 128.036 C 285.720 128.250,283.074 128.694,280.720 129.023 C 278.366 129.352,275.688 129.887,274.769 130.211 C 273.851 130.535,272.357 130.802,271.450 130.805 C 270.542 130.807,268.810 131.092,267.600 131.437 C 265.096 132.151,263.159 132.523,258.600 133.166 C 256.840 133.415,254.683 133.866,253.808 134.169 C 252.284 134.696,252.159 134.674,250.922 133.660 C 248.429 131.615,247.270 130.800,246.857 130.800 C 246.627 130.800,246.296 130.546,246.120 130.235 C 245.944 129.925,244.810 129.004,243.600 128.188 C 242.390 127.373,241.220 126.487,241.000 126.220 C 240.780 125.952,240.119 125.479,239.532 125.167 C 238.083 124.397,233.477 120.808,233.080 120.139 C 232.904 119.843,232.499 119.600,232.180 119.600 C 231.861 119.600,231.281 119.285,230.891 118.900 C 230.502 118.515,229.737 117.883,229.191 117.496 C 228.646 117.108,227.570 116.344,226.800 115.797 C 226.030 115.250,224.842 114.397,224.160 113.901 C 223.478 113.406,221.723 112.206,220.260 111.235 C 218.797 110.265,217.600 109.354,217.600 109.212 C 217.600 109.069,216.388 108.153,214.907 107.176 C 213.426 106.199,211.941 105.162,211.607 104.872 C 211.273 104.581,209.650 103.372,208.000 102.183 C 206.350 100.995,204.640 99.734,204.200 99.381 C 203.760 99.027,202.050 97.754,200.400 96.552 C 196.952 94.039,196.372 93.609,194.245 91.986 C 193.390 91.334,192.490 90.800,192.245 90.800 C 192.000 90.800,190.990 90.041,190.000 89.112 C 186.483 85.815,184.129 84.517,183.089 85.300 M305.113 125.938 C 305.528 126.201,305.626 139.353,305.624 194.214 L 305.622 262.164 303.285 264.382 C 300.534 266.993,296.654 270.351,295.407 271.200 C 294.343 271.924,288.914 276.418,286.587 278.500 C 285.665 279.325,284.771 280.000,284.600 280.000 C 284.429 280.000,283.189 280.948,281.844 282.107 C 280.500 283.266,278.590 284.865,277.600 285.661 C 276.610 286.457,274.900 287.946,273.800 288.969 C 272.700 289.991,271.312 291.093,270.716 291.416 C 270.120 291.739,269.215 292.408,268.704 292.902 C 265.668 295.839,257.366 302.833,255.055 304.400 C 254.568 304.730,253.772 305.405,253.285 305.900 C 252.210 306.993,250.856 307.043,248.884 306.062 C 248.068 305.655,245.510 304.740,243.200 304.027 C 240.890 303.314,238.100 302.408,237.000 302.013 C 233.720 300.835,229.893 299.584,228.400 299.203 C 226.136 298.624,216.909 295.435,215.000 294.572 C 213.134 293.728,205.013 291.200,204.162 291.199 C 203.743 291.198,202.811 290.838,202.090 290.399 C 201.370 289.959,200.430 289.600,200.001 289.600 C 199.572 289.600,198.452 289.258,197.511 288.840 C 195.341 287.875,188.358 285.600,187.567 285.600 C 187.238 285.600,186.291 285.254,185.461 284.831 C 184.632 284.408,183.254 283.944,182.400 283.800 C 181.545 283.656,180.634 283.282,180.374 282.969 C 180.114 282.656,179.593 282.400,179.215 282.400 C 178.837 282.400,176.943 281.851,175.007 281.180 C 172.734 280.393,170.902 280.002,169.842 280.080 L 168.200 280.200 168.000 292.715 C 167.835 303.071,167.700 305.292,167.219 305.589 C 166.513 306.025,166.000 305.760,166.000 304.958 C 166.000 304.631,165.507 303.877,164.905 303.282 C 164.303 302.687,162.033 300.040,159.862 297.400 C 155.883 292.563,154.271 290.675,150.215 286.103 C 148.997 284.730,147.996 283.470,147.990 283.303 C 147.985 283.137,147.072 282.010,145.961 280.800 C 144.851 279.590,142.631 276.980,141.027 275.000 C 139.423 273.020,136.801 269.960,135.200 268.200 C 133.600 266.440,132.008 264.550,131.662 264.000 C 130.961 262.883,127.975 259.253,125.217 256.167 C 122.261 252.859,120.173 250.417,117.038 246.600 C 115.412 244.620,112.803 241.663,111.240 240.029 C 109.678 238.395,108.400 236.829,108.400 236.549 C 108.400 236.269,108.086 235.864,107.703 235.650 C 106.359 234.898,107.652 234.646,110.420 235.121 C 111.957 235.384,113.887 235.606,114.707 235.614 C 115.528 235.622,117.370 235.900,118.800 236.233 C 120.230 236.566,122.840 237.000,124.600 237.197 C 132.754 238.112,138.273 238.841,139.577 239.175 C 140.360 239.375,142.800 239.635,145.000 239.752 C 147.200 239.868,150.440 240.329,152.200 240.776 C 153.960 241.222,156.390 241.595,157.600 241.603 C 158.810 241.612,161.138 241.975,162.773 242.409 C 164.408 242.844,166.684 243.200,167.830 243.200 C 168.977 243.200,171.239 243.452,172.857 243.760 C 176.869 244.523,181.530 245.132,185.600 245.425 C 187.470 245.559,189.923 245.930,191.050 246.249 C 192.178 246.567,194.608 246.983,196.450 247.172 C 198.293 247.362,201.510 247.798,203.600 248.143 C 212.552 249.617,219.667 250.550,226.863 251.192 C 229.579 251.434,232.666 251.913,233.725 252.257 C 234.783 252.600,236.313 252.880,237.125 252.880 C 237.936 252.880,240.040 253.205,241.800 253.602 C 246.430 254.647,250.306 254.976,251.018 254.385 C 251.522 253.966,251.600 246.046,251.600 195.000 C 251.600 145.320,251.687 136.026,252.154 135.638 C 252.458 135.386,254.123 134.928,255.854 134.622 C 257.584 134.315,259.450 133.894,260.000 133.685 C 260.550 133.477,262.260 133.173,263.799 133.010 C 265.339 132.848,267.229 132.399,267.999 132.013 C 268.870 131.577,270.840 131.214,273.208 131.054 C 275.303 130.913,277.643 130.616,278.408 130.395 C 280.423 129.814,286.943 128.800,288.664 128.800 C 289.487 128.800,290.467 128.501,290.886 128.122 C 291.398 127.659,292.673 127.365,294.917 127.193 C 296.794 127.049,298.714 126.655,299.400 126.273 C 300.652 125.576,304.213 125.367,305.113 125.938 M250.997 136.900 C 251.327 138.743,251.059 253.475,250.724 253.810 C 250.571 253.962,248.771 253.805,246.724 253.460 C 244.676 253.116,241.560 252.722,239.800 252.584 C 238.040 252.447,235.904 252.072,235.053 251.752 C 234.203 251.431,230.963 250.983,227.853 250.755 C 224.716 250.526,221.639 250.088,220.940 249.771 C 220.246 249.457,218.626 249.189,217.340 249.176 C 216.053 249.163,214.100 248.973,213.000 248.755 C 209.310 248.022,206.629 247.646,202.000 247.215 C 199.470 246.979,196.410 246.513,195.200 246.181 C 193.990 245.848,190.390 245.322,187.200 245.013 C 184.010 244.703,180.500 244.260,179.400 244.027 C 177.639 243.655,170.854 242.677,162.200 241.547 C 159.164 241.150,156.100 240.684,150.800 239.812 C 148.930 239.504,146.197 239.241,144.726 239.226 C 143.255 239.212,141.545 238.998,140.926 238.751 C 140.307 238.504,137.010 237.967,133.600 237.557 C 130.190 237.147,126.410 236.632,125.200 236.412 C 123.990 236.192,121.110 235.825,118.800 235.596 C 116.490 235.368,114.141 234.998,113.580 234.775 C 113.019 234.552,111.410 234.241,110.005 234.084 C 106.550 233.700,106.766 236.234,106.891 197.574 L 107.000 163.929 107.859 163.234 C 108.413 162.785,110.097 162.369,112.600 162.061 C 114.735 161.799,116.824 161.401,117.242 161.177 C 117.660 160.954,119.577 160.579,121.501 160.346 C 123.425 160.112,125.557 159.689,126.237 159.407 C 126.918 159.124,128.628 158.762,130.037 158.601 C 131.447 158.441,133.860 158.056,135.400 157.745 C 136.940 157.434,140.205 156.842,142.655 156.428 C 145.106 156.014,147.446 155.499,147.855 155.284 C 148.265 155.068,149.950 154.761,151.600 154.602 C 153.250 154.442,155.195 154.067,155.923 153.767 C 156.651 153.467,158.181 153.119,159.323 152.995 C 162.274 152.673,168.236 151.598,170.662 150.950 C 171.795 150.648,173.510 150.400,174.473 150.400 C 175.435 150.400,176.618 150.123,177.101 149.784 C 177.633 149.412,179.529 149.030,181.890 148.821 C 184.041 148.630,186.340 148.263,187.000 148.005 C 187.660 147.747,189.640 147.289,191.400 146.986 C 193.160 146.684,196.310 146.070,198.400 145.623 C 200.490 145.176,202.791 144.808,203.513 144.805 C 204.235 144.802,205.483 144.525,206.287 144.189 C 207.091 143.853,209.470 143.405,211.574 143.192 C 213.679 142.980,216.030 142.553,216.800 142.244 C 217.570 141.935,220.540 141.289,223.400 140.808 C 234.196 138.994,235.441 138.756,237.000 138.210 C 237.880 137.902,239.950 137.535,241.600 137.394 C 243.250 137.252,245.140 136.890,245.800 136.589 C 246.880 136.096,248.080 135.836,250.082 135.660 C 250.556 135.618,250.835 135.996,250.997 136.900 M192.662 344.731 C 191.687 345.809,191.656 367.999,192.629 368.971 C 193.133 369.476,194.248 369.600,198.287 369.600 C 205.020 369.600,210.067 367.330,211.843 363.503 C 212.176 362.786,212.705 361.750,213.018 361.200 C 215.422 356.983,212.545 348.137,208.009 345.802 C 204.397 343.942,194.031 343.219,192.662 344.731 M262.800 344.257 C 255.573 347.205,253.632 349.714,253.297 356.535 C 252.930 364.025,258.005 369.600,265.190 369.600 C 268.546 369.600,274.776 366.374,274.796 364.626 C 274.798 364.420,275.132 363.880,275.538 363.426 C 277.507 361.222,277.540 352.265,275.586 350.185 C 275.154 349.725,274.800 349.175,274.800 348.963 C 274.800 346.682,265.652 343.094,262.800 344.257 M103.325 344.874 C 103.097 345.163,102.782 345.940,102.626 346.600 C 102.469 347.260,102.016 348.160,101.620 348.600 C 101.223 349.040,100.785 350.040,100.646 350.822 C 100.507 351.605,100.034 352.948,99.596 353.807 C 99.158 354.666,98.800 355.699,98.800 356.103 C 98.800 356.506,98.350 357.682,97.800 358.715 C 97.250 359.748,96.800 360.991,96.800 361.476 C 96.800 361.961,96.350 363.204,95.800 364.238 C 94.651 366.400,94.480 368.592,95.433 368.957 C 96.523 369.376,96.725 369.239,97.217 367.749 C 98.606 363.538,100.220 362.400,104.800 362.400 C 108.699 362.400,109.614 362.728,110.265 364.359 C 111.860 368.354,112.846 369.592,113.800 368.800 C 114.652 368.093,114.543 365.890,113.596 364.686 C 113.155 364.125,112.679 363.065,112.539 362.332 C 112.400 361.600,112.046 360.523,111.754 359.941 C 111.461 359.358,111.026 358.008,110.787 356.941 C 110.548 355.874,110.026 354.640,109.627 354.200 C 109.229 353.760,108.805 352.621,108.685 351.669 C 108.566 350.717,108.174 349.613,107.815 349.216 C 107.456 348.819,106.990 347.888,106.779 347.147 C 106.122 344.830,104.305 343.634,103.325 344.874 M269.043 345.584 C 275.259 347.504,277.974 353.612,275.896 361.000 C 275.154 363.635,272.166 367.600,270.920 367.600 C 270.636 367.600,269.309 367.979,267.973 368.441 C 265.346 369.350,264.651 369.309,261.006 368.023 C 251.742 364.756,251.350 348.423,260.477 345.982 C 261.425 345.729,262.380 345.375,262.600 345.196 C 263.048 344.832,265.155 344.466,265.853 344.631 C 266.102 344.690,267.538 345.119,269.043 345.584 M105.967 346.479 C 107.030 348.345,105.595 349.468,103.548 348.372 C 102.802 347.973,102.757 346.315,103.460 345.118 C 103.768 344.593,105.396 345.477,105.967 346.479 M205.195 345.622 C 209.752 346.757,210.831 347.700,212.202 351.750 C 214.743 359.253,211.894 365.358,204.600 368.042 C 201.722 369.102,194.045 369.394,193.124 368.480 C 192.548 367.908,192.331 346.855,192.887 345.500 C 193.323 344.440,200.740 344.514,205.195 345.622 M102.800 350.374 C 102.800 352.398,102.186 354.000,101.410 354.000 C 100.970 354.000,100.800 354.425,100.800 355.524 C 100.800 357.388,99.823 359.027,99.385 357.897 C 99.004 356.916,99.535 354.400,100.173 354.155 C 100.480 354.037,100.812 352.978,100.965 351.629 C 101.243 349.169,101.413 348.800,102.267 348.800 C 102.621 348.800,102.800 349.329,102.800 350.374 M197.600 349.600 C 196.520 350.680,196.375 362.415,197.423 363.911 C 198.701 365.736,205.600 364.637,205.600 362.609 C 205.600 362.278,205.956 361.784,206.392 361.512 C 208.826 359.992,208.280 353.670,205.451 350.633 C 203.418 348.450,199.292 347.908,197.600 349.600 M105.348 350.300 C 105.660 350.905,106.129 352.191,106.389 353.158 C 106.649 354.125,107.223 355.404,107.663 356.000 C 109.683 358.731,104.853 361.155,101.242 359.223 C 100.380 358.761,100.967 355.763,102.183 354.419 C 102.501 354.067,102.875 352.974,103.014 351.990 C 103.464 348.800,104.271 348.216,105.348 350.300 M204.953 351.017 C 207.547 353.611,208.169 359.265,206.074 361.217 C 205.593 361.665,205.200 362.191,205.200 362.386 C 205.200 363.769,199.656 364.537,198.331 363.338 C 197.478 362.566,197.227 352.243,198.026 350.751 C 199.219 348.523,202.589 348.652,204.953 351.017 M262.553 350.212 C 259.798 351.421,258.520 354.143,258.892 358.013 C 259.750 366.947,271.600 365.816,271.600 356.800 C 271.600 351.371,267.206 348.172,262.553 350.212 M108.148 350.900 C 108.281 351.395,108.392 352.267,108.395 352.838 C 108.398 353.409,108.749 354.192,109.175 354.578 C 109.602 354.964,110.142 356.171,110.375 357.260 C 110.609 358.349,111.046 359.726,111.347 360.320 C 111.647 360.914,112.023 362.114,112.181 362.986 C 112.339 363.859,112.813 364.814,113.234 365.109 C 114.053 365.682,114.320 368.155,113.611 368.593 C 113.173 368.864,110.819 365.334,110.808 364.389 C 110.783 362.382,109.817 362.000,104.771 362.000 L 99.988 362.000 99.218 363.300 C 98.794 364.015,98.212 364.862,97.924 365.182 C 97.636 365.502,97.214 366.402,96.987 367.182 C 96.756 367.975,96.315 368.600,95.987 368.600 C 95.044 368.600,95.284 365.528,96.331 364.197 C 96.809 363.589,97.200 362.521,97.200 361.823 C 97.200 359.500,98.658 358.606,100.926 359.537 C 102.630 360.237,107.786 360.140,108.403 359.396 C 109.074 358.588,108.667 355.684,107.794 355.045 C 107.092 354.532,106.332 351.442,106.683 350.527 C 107.004 349.691,107.884 349.914,108.148 350.900 M221.750 351.277 C 214.194 354.179,213.935 365.263,221.339 368.787 C 224.830 370.448,230.153 369.459,231.302 366.935 C 232.041 365.313,230.941 364.800,226.724 364.800 C 223.948 364.800,223.200 364.679,223.200 364.233 C 223.200 363.921,223.091 363.381,222.957 363.033 C 222.745 362.479,223.268 362.400,227.129 362.400 C 232.796 362.400,232.995 362.245,232.678 358.066 C 232.251 352.417,227.105 349.220,221.750 351.277 M234.414 351.174 C 233.822 352.281,233.902 353.681,234.644 355.168 C 234.998 355.878,235.531 357.301,235.828 358.329 C 237.508 364.151,238.417 366.783,239.211 368.129 L 240.099 369.634 242.739 369.517 C 245.712 369.385,246.384 368.684,247.834 364.200 C 248.190 363.100,248.823 361.468,249.240 360.574 C 249.658 359.679,250.000 358.617,250.000 358.212 C 250.000 357.808,250.459 356.506,251.021 355.319 C 252.937 351.269,250.759 349.035,247.035 351.232 C 245.938 351.880,245.575 352.391,245.404 353.532 C 245.199 354.893,243.888 359.552,243.189 361.400 C 242.850 362.298,242.000 360.739,242.000 359.218 C 242.000 358.816,241.644 357.703,241.209 356.744 C 240.774 355.785,240.411 354.460,240.403 353.800 C 240.369 351.122,235.569 349.016,234.414 351.174 M268.871 351.500 C 271.470 354.302,271.450 359.567,268.831 362.300 C 267.951 363.219,263.220 363.642,262.199 362.894 C 260.386 361.566,259.189 357.797,259.550 354.555 C 259.936 351.098,266.501 348.946,268.871 351.500 M280.223 351.289 C 279.409 352.451,279.277 375.917,280.080 376.720 C 280.344 376.984,281.568 377.200,282.800 377.200 C 285.856 377.200,286.000 376.972,286.000 372.120 C 286.000 367.775,286.214 367.346,287.711 368.700 C 289.555 370.368,293.007 369.384,296.170 366.290 L 297.740 364.754 297.757 359.817 L 297.774 354.880 296.187 353.298 C 293.134 350.256,291.225 349.854,287.897 351.550 C 286.448 352.289,286.431 352.288,284.920 351.359 C 282.938 350.141,281.046 350.113,280.223 351.289 M305.213 350.996 C 298.269 352.674,298.450 360.128,305.486 362.246 C 307.339 362.804,307.982 363.330,307.994 364.300 C 308.002 364.947,302.752 364.992,302.111 364.351 C 301.654 363.894,299.600 365.511,299.600 366.327 C 299.600 366.895,301.698 368.855,302.726 369.247 C 305.591 370.339,311.244 368.762,312.705 366.464 C 313.077 365.879,313.506 365.308,313.659 365.196 C 315.020 364.196,313.569 359.830,311.716 359.350 C 311.230 359.224,310.624 358.870,310.370 358.564 C 310.115 358.257,309.208 357.818,308.353 357.587 C 306.835 357.179,306.552 356.713,307.043 355.433 C 307.361 354.604,309.519 354.603,310.435 355.432 C 311.513 356.408,312.800 355.546,312.800 353.848 C 312.800 351.032,309.775 349.894,305.213 350.996 M118.322 351.811 C 117.633 353.323,118.286 353.665,121.939 353.704 C 125.839 353.746,126.655 354.642,124.324 356.323 C 123.926 356.610,123.600 357.079,123.600 357.364 C 123.600 357.650,123.195 358.346,122.700 358.911 C 118.682 363.500,116.366 368.255,117.870 368.826 C 119.978 369.628,129.400 369.116,129.400 368.200 C 129.400 367.468,129.050 367.379,125.283 367.150 C 121.247 366.905,120.181 366.634,121.067 366.078 C 121.311 365.925,121.798 365.170,122.149 364.400 C 122.501 363.630,123.420 362.190,124.193 361.200 C 124.965 360.210,125.759 359.031,125.958 358.580 C 126.261 357.893,127.509 355.999,129.378 353.390 C 129.622 353.050,129.589 352.495,129.287 351.831 C 128.556 350.227,119.052 350.210,118.322 351.811 M133.631 351.726 C 132.598 354.424,133.092 364.531,134.341 366.256 C 135.895 368.400,137.245 369.200,139.309 369.200 C 142.771 369.200,143.395 367.488,140.093 367.050 C 138.438 366.831,137.986 366.559,136.884 365.125 L 135.600 363.455 135.600 357.972 C 135.600 353.157,135.506 352.374,134.831 351.544 L 134.062 350.600 133.631 351.726 M168.635 351.732 C 167.774 352.210,166.334 353.474,165.435 354.541 L 163.800 356.483 163.817 360.141 C 163.834 364.001,165.149 367.056,167.096 367.759 C 167.483 367.898,168.250 368.277,168.800 368.600 C 171.781 370.353,178.769 367.798,176.688 365.717 C 176.127 365.156,175.966 365.197,175.016 366.148 C 172.817 368.346,168.484 366.801,167.246 363.377 C 166.424 361.102,166.962 360.800,171.830 360.800 C 178.903 360.800,180.165 359.462,177.584 354.697 C 176.600 352.881,176.084 352.361,174.884 351.977 C 174.068 351.717,173.229 351.345,173.020 351.152 C 172.368 350.549,170.268 350.827,168.635 351.732 M145.283 351.677 C 144.960 352.000,144.797 353.760,144.790 356.980 C 144.779 362.558,144.373 364.779,143.221 365.549 C 142.227 366.213,142.142 367.200,143.078 367.200 C 143.451 367.200,144.245 367.668,144.842 368.241 L 145.928 369.281 146.554 368.326 C 148.088 365.985,146.874 350.086,145.283 351.677 M152.856 351.915 C 152.397 352.796,152.287 365.819,152.725 367.400 C 152.998 368.384,153.268 368.600,154.229 368.600 L 155.400 368.600 155.612 363.000 C 155.882 355.856,156.371 354.622,159.081 354.251 C 161.520 353.917,162.088 353.430,161.513 352.170 C 160.970 350.976,159.336 350.869,157.954 351.936 C 156.491 353.066,155.256 353.252,154.806 352.411 C 154.246 351.365,153.271 351.117,152.856 351.915 M239.500 352.086 C 239.775 352.313,240.000 353.087,240.000 353.807 C 240.000 354.527,240.344 356.260,240.765 357.658 C 241.186 359.056,241.651 360.785,241.797 361.500 C 242.135 363.148,243.324 363.259,243.931 361.700 C 244.744 359.614,245.600 356.252,245.600 355.146 C 245.600 353.275,246.373 352.137,248.011 351.596 C 250.576 350.750,252.274 352.222,250.852 354.057 C 250.450 354.576,249.996 355.802,249.843 356.782 C 249.690 357.761,249.234 359.111,248.831 359.782 C 248.427 360.452,247.973 361.630,247.822 362.400 C 247.671 363.170,246.974 364.970,246.273 366.400 L 245.000 369.000 242.713 369.120 L 240.426 369.239 239.206 366.550 C 238.536 365.071,237.875 363.127,237.737 362.231 C 237.600 361.334,237.168 359.962,236.777 359.181 C 236.386 358.401,235.943 357.103,235.792 356.296 C 235.640 355.489,235.265 354.620,234.958 354.365 C 234.265 353.790,234.233 352.329,234.900 351.653 C 235.461 351.084,238.647 351.384,239.500 352.086 M285.116 352.730 L 286.432 353.719 287.587 352.613 C 289.455 350.822,293.630 351.203,295.788 353.361 L 297.332 354.905 297.318 359.617 L 297.305 364.328 295.976 365.911 C 293.920 368.360,290.717 369.214,288.235 367.975 C 285.429 366.573,285.024 367.144,285.345 372.046 C 285.646 376.635,285.474 376.902,282.332 376.722 L 280.200 376.600 280.094 364.648 C 279.983 352.162,280.030 351.783,281.729 351.506 C 282.894 351.317,283.552 351.554,285.116 352.730 M129.010 352.431 C 129.173 352.944,129.037 353.519,128.657 353.931 C 126.170 356.626,125.600 357.429,125.600 358.237 C 125.600 358.742,125.269 359.390,124.863 359.677 C 124.458 359.965,123.892 360.650,123.605 361.200 C 123.318 361.750,122.853 362.336,122.572 362.503 C 122.290 362.670,121.853 363.435,121.599 364.203 C 121.345 364.971,120.959 365.600,120.741 365.600 C 120.523 365.600,120.402 366.005,120.472 366.500 C 120.593 367.353,120.819 367.410,124.800 367.600 C 127.200 367.714,129.000 367.971,129.000 368.200 C 129.000 368.655,121.324 368.974,119.300 368.602 C 117.642 368.298,117.457 366.468,118.944 365.081 C 119.464 364.596,120.027 363.750,120.195 363.200 C 120.364 362.650,120.753 361.930,121.060 361.600 C 122.266 360.304,123.981 357.891,124.211 357.165 C 124.345 356.744,124.717 356.400,125.040 356.400 C 125.883 356.400,126.146 355.394,125.664 354.011 C 125.333 353.062,125.372 352.685,125.851 352.206 C 126.770 351.287,128.690 351.424,129.010 352.431 M160.174 351.990 C 161.218 352.387,161.611 353.596,160.700 353.605 C 160.425 353.608,159.840 353.701,159.400 353.811 C 157.984 354.164,157.303 353.391,158.178 352.424 C 159.050 351.461,158.880 351.498,160.174 351.990 M229.498 353.300 C 234.555 358.465,233.516 361.713,226.738 361.931 C 221.759 362.091,221.288 362.263,222.023 363.657 C 222.762 365.061,223.125 365.187,226.424 365.194 C 231.348 365.204,232.239 366.854,228.148 368.385 C 222.234 370.598,217.073 367.159,216.882 360.877 C 216.684 354.410,219.067 351.600,224.748 351.600 L 227.833 351.600 229.498 353.300 M311.626 352.014 C 312.053 352.243,312.400 352.848,312.400 353.365 C 312.400 354.558,311.576 355.282,310.787 354.783 C 310.088 354.342,307.183 354.289,306.565 354.706 C 304.714 355.956,306.065 357.751,309.810 359.018 C 312.266 359.849,313.200 361.063,313.200 363.425 C 313.200 368.119,303.948 370.793,300.805 367.006 C 299.738 365.720,301.141 365.070,304.777 365.166 C 307.442 365.236,308.049 365.137,308.255 364.600 C 308.744 363.325,307.760 362.148,305.737 361.589 C 297.892 359.421,299.216 351.600,307.427 351.600 C 309.311 351.600,311.201 351.786,311.626 352.014 M134.957 352.633 C 135.091 352.981,135.200 355.878,135.200 359.070 C 135.200 364.503,135.250 364.888,135.985 365.080 C 136.417 365.193,137.001 365.806,137.283 366.443 C 137.683 367.346,138.059 367.601,138.998 367.606 C 140.571 367.614,141.543 368.183,140.601 368.544 C 139.431 368.993,137.714 368.819,137.200 368.200 C 136.926 367.870,136.485 367.600,136.219 367.600 C 135.953 367.600,135.480 367.105,135.168 366.500 C 134.855 365.895,134.375 365.162,134.100 364.871 C 133.565 364.306,133.352 352.781,133.867 352.267 C 134.305 351.829,134.700 351.961,134.957 352.633 M146.466 360.078 C 146.613 368.294,146.461 368.917,144.686 367.379 C 143.587 366.427,143.582 366.400,144.280 365.335 C 144.852 364.460,145.012 363.183,145.117 358.627 C 145.254 352.694,145.398 351.629,145.979 352.233 C 146.173 352.435,146.392 355.965,146.466 360.078 M155.693 354.118 C 156.382 354.598,155.982 357.352,155.093 358.240 C 154.932 358.401,154.800 360.275,154.800 362.405 C 154.800 365.725,154.690 366.376,154.026 366.977 C 153.263 367.667,153.249 367.567,153.126 360.339 C 152.979 351.787,153.002 351.623,154.155 352.786 C 154.620 353.254,155.312 353.853,155.693 354.118 M123.600 352.800 C 123.600 353.023,122.525 353.200,121.176 353.200 C 119.663 353.200,118.846 353.050,119.000 352.800 C 119.136 352.580,120.227 352.400,121.424 352.400 C 122.621 352.400,123.600 352.580,123.600 352.800 M169.793 352.788 C 169.925 353.002,169.567 353.293,168.998 353.436 C 167.856 353.723,167.378 353.483,167.784 352.827 C 168.113 352.293,169.471 352.268,169.793 352.788 M176.219 353.458 C 177.313 354.639,177.544 356.400,176.605 356.400 C 176.278 356.400,175.758 355.794,175.448 355.054 C 175.079 354.169,174.523 353.617,173.827 353.442 C 173.244 353.296,172.875 353.002,173.007 352.788 C 173.473 352.035,175.242 352.405,176.219 353.458 M173.571 353.919 C 177.200 355.721,176.003 358.000,171.427 358.000 C 167.150 358.000,166.373 357.521,167.539 355.604 C 168.907 353.355,171.164 352.724,173.571 353.919 M167.600 354.426 C 167.600 355.240,166.769 356.400,166.186 356.400 C 165.480 356.400,165.411 355.149,166.080 354.480 C 166.675 353.885,167.600 353.853,167.600 354.426 M222.453 355.746 C 220.798 357.452,221.426 358.400,224.210 358.400 C 227.798 358.400,228.848 357.185,226.769 355.436 C 225.124 354.051,224.018 354.131,222.453 355.746 M226.155 355.847 C 227.954 357.069,227.594 357.584,224.933 357.594 C 222.203 357.604,221.847 357.321,222.904 355.981 C 224.021 354.564,224.253 354.554,226.155 355.847 M287.690 355.484 C 283.691 356.251,284.519 364.800,288.592 364.800 C 292.329 364.800,294.204 359.627,291.559 356.614 C 290.345 355.232,289.812 355.076,287.690 355.484 M291.560 357.423 C 293.565 360.820,291.196 364.590,287.559 363.791 C 285.182 363.269,284.966 356.734,287.312 356.281 C 289.967 355.767,290.700 355.964,291.560 357.423 M166.164 357.400 C 168.012 359.249,175.789 358.729,177.255 356.658 C 177.710 356.016,178.400 356.816,178.400 357.984 C 178.400 359.382,176.612 360.213,174.959 359.584 C 170.670 357.954,163.349 360.795,166.159 363.000 C 166.440 363.220,166.907 363.850,167.198 364.400 C 167.489 364.950,168.058 365.635,168.463 365.923 C 168.869 366.210,169.200 366.705,169.200 367.023 C 169.200 367.428,169.668 367.600,170.767 367.600 C 172.620 367.600,173.682 367.943,173.374 368.442 C 172.953 369.123,170.153 368.826,169.200 368.000 C 168.693 367.560,167.877 367.200,167.386 367.200 C 165.627 367.200,163.822 362.256,164.250 358.611 C 164.543 356.118,164.750 355.987,166.164 357.400 M176.515 366.845 C 175.840 367.520,175.037 366.878,175.644 366.147 C 175.978 365.744,176.254 365.694,176.543 365.983 C 176.832 366.272,176.824 366.536,176.515 366.845 " stroke="none" fill="#86aad8" fill-rule="evenodd"></path><path id="path3" d="M103.460 345.118 C 102.757 346.315,102.802 347.973,103.548 348.372 C 105.595 349.468,107.030 348.345,105.967 346.479 C 105.396 345.477,103.768 344.593,103.460 345.118 M101.481 349.053 C 101.342 349.192,101.110 350.351,100.965 351.629 C 100.812 352.978,100.480 354.037,100.173 354.155 C 99.535 354.400,99.004 356.916,99.385 357.897 C 99.823 359.027,100.800 357.388,100.800 355.524 C 100.800 354.425,100.970 354.000,101.410 354.000 C 102.186 354.000,102.800 352.398,102.800 350.374 C 102.800 348.901,102.216 348.317,101.481 349.053 M106.683 350.527 C 106.332 351.442,107.092 354.532,107.794 355.045 C 108.667 355.684,109.074 358.588,108.403 359.396 C 107.786 360.140,102.630 360.237,100.926 359.537 C 98.658 358.606,97.200 359.500,97.200 361.823 C 97.200 362.521,96.809 363.589,96.331 364.197 C 95.284 365.528,95.044 368.600,95.987 368.600 C 96.315 368.600,96.756 367.975,96.987 367.182 C 97.214 366.402,97.636 365.502,97.924 365.182 C 98.212 364.862,98.794 364.015,99.218 363.300 L 99.988 362.000 104.771 362.000 C 109.817 362.000,110.783 362.382,110.808 364.389 C 110.819 365.334,113.173 368.864,113.611 368.593 C 114.320 368.155,114.053 365.682,113.234 365.109 C 112.813 364.814,112.339 363.859,112.181 362.986 C 112.023 362.114,111.647 360.914,111.347 360.320 C 111.046 359.726,110.609 358.349,110.375 357.260 C 110.142 356.171,109.602 354.964,109.175 354.578 C 108.749 354.192,108.398 353.409,108.395 352.838 C 108.382 350.506,107.268 349.002,106.683 350.527 M125.851 352.206 C 125.372 352.685,125.333 353.062,125.664 354.011 C 126.146 355.394,125.883 356.400,125.040 356.400 C 124.717 356.400,124.345 356.744,124.211 357.165 C 123.981 357.891,122.266 360.304,121.060 361.600 C 120.753 361.930,120.364 362.650,120.195 363.200 C 120.027 363.750,119.464 364.596,118.944 365.081 C 117.457 366.468,117.642 368.298,119.300 368.602 C 121.324 368.974,129.000 368.655,129.000 368.200 C 129.000 367.971,127.200 367.714,124.800 367.600 C 120.819 367.410,120.593 367.353,120.472 366.500 C 120.402 366.005,120.523 365.600,120.741 365.600 C 120.959 365.600,121.345 364.971,121.599 364.203 C 121.853 363.435,122.290 362.670,122.572 362.503 C 122.853 362.336,123.318 361.750,123.605 361.200 C 123.892 360.650,124.458 359.965,124.863 359.677 C 125.269 359.390,125.600 358.742,125.600 358.237 C 125.600 357.429,126.170 356.626,128.657 353.931 C 130.174 352.287,127.447 350.610,125.851 352.206 M158.178 352.424 C 157.303 353.391,157.984 354.164,159.400 353.811 C 159.840 353.701,160.425 353.608,160.700 353.605 C 161.611 353.596,161.218 352.387,160.174 351.990 C 158.880 351.498,159.050 351.461,158.178 352.424 M133.867 352.267 C 133.352 352.781,133.565 364.306,134.100 364.871 C 134.375 365.162,134.855 365.895,135.168 366.500 C 135.480 367.105,135.953 367.600,136.219 367.600 C 136.485 367.600,136.926 367.870,137.200 368.200 C 137.714 368.819,139.431 368.993,140.601 368.544 C 141.543 368.183,140.571 367.614,138.998 367.606 C 138.059 367.601,137.683 367.346,137.283 366.443 C 137.001 365.806,136.417 365.193,135.985 365.080 C 135.250 364.888,135.200 364.503,135.200 359.070 C 135.200 352.514,134.941 351.192,133.867 352.267 M145.437 352.433 C 145.333 352.745,145.189 355.532,145.117 358.627 C 145.012 363.183,144.852 364.460,144.280 365.335 C 143.582 366.400,143.587 366.427,144.686 367.379 C 146.461 368.917,146.613 368.294,146.466 360.078 C 146.345 353.380,145.994 350.767,145.437 352.433 M153.155 352.467 C 152.514 354.667,153.292 367.641,154.026 366.977 C 154.690 366.376,154.800 365.725,154.800 362.405 C 154.800 360.275,154.932 358.401,155.093 358.240 C 155.982 357.352,156.382 354.598,155.693 354.118 C 155.312 353.853,154.620 353.254,154.155 352.786 C 153.539 352.165,153.269 352.079,153.155 352.467 M119.000 352.800 C 118.846 353.050,119.663 353.200,121.176 353.200 C 122.525 353.200,123.600 353.023,123.600 352.800 C 123.600 352.580,122.621 352.400,121.424 352.400 C 120.227 352.400,119.136 352.580,119.000 352.800 M167.784 352.827 C 167.378 353.483,167.856 353.723,168.998 353.436 C 169.567 353.293,169.925 353.002,169.793 352.788 C 169.471 352.268,168.113 352.293,167.784 352.827 M173.007 352.788 C 172.875 353.002,173.244 353.296,173.827 353.442 C 174.523 353.617,175.079 354.169,175.448 355.054 C 176.101 356.615,177.200 356.869,177.200 355.458 C 177.200 353.532,173.862 351.406,173.007 352.788 M166.080 354.480 C 165.411 355.149,165.480 356.400,166.186 356.400 C 166.769 356.400,167.600 355.240,167.600 354.426 C 167.600 353.853,166.675 353.885,166.080 354.480 M164.250 358.611 C 163.822 362.256,165.627 367.200,167.386 367.200 C 167.877 367.200,168.693 367.560,169.200 368.000 C 170.153 368.826,172.953 369.123,173.374 368.442 C 173.682 367.943,172.620 367.600,170.767 367.600 C 169.668 367.600,169.200 367.428,169.200 367.023 C 169.200 366.705,168.869 366.210,168.463 365.923 C 168.058 365.635,167.489 364.950,167.198 364.400 C 166.907 363.850,166.440 363.220,166.159 363.000 C 163.349 360.795,170.670 357.954,174.959 359.584 C 176.612 360.213,178.400 359.382,178.400 357.984 C 178.400 356.816,177.710 356.016,177.255 356.658 C 175.789 358.729,168.012 359.249,166.164 357.400 C 164.750 355.987,164.543 356.118,164.250 358.611 M175.644 366.147 C 175.287 366.577,175.280 366.802,175.615 367.010 C 176.268 367.413,177.077 366.517,176.543 365.983 C 176.254 365.694,175.978 365.744,175.644 366.147 " stroke="none" fill="#949494" fill-rule="evenodd"></path><path id="path4" d="M183.280 86.080 C 182.932 86.428,182.800 89.335,182.800 96.647 C 182.800 108.321,182.913 107.765,180.370 108.610 C 179.292 108.968,178.307 109.427,178.181 109.631 C 178.056 109.834,177.553 110.000,177.065 110.000 C 176.577 110.000,175.786 110.274,175.307 110.610 C 174.362 111.272,168.774 113.407,166.200 114.090 C 165.320 114.324,164.330 114.745,164.000 115.026 C 163.404 115.535,161.819 116.180,157.600 117.632 C 156.390 118.048,154.950 118.645,154.400 118.958 C 153.850 119.271,152.680 119.653,151.800 119.808 C 150.920 119.963,149.834 120.318,149.386 120.597 C 147.547 121.745,139.970 124.816,137.632 125.362 C 136.251 125.684,134.810 126.229,134.429 126.574 C 134.048 126.918,133.506 127.200,133.223 127.200 C 132.940 127.200,132.054 127.541,131.254 127.957 C 129.567 128.835,123.555 131.028,121.800 131.405 C 121.140 131.546,120.330 131.904,120.000 132.200 C 119.670 132.496,118.680 132.999,117.800 133.318 C 116.920 133.637,114.615 134.551,112.678 135.349 C 110.740 136.147,108.789 136.800,108.341 136.800 C 107.894 136.800,107.049 137.371,106.464 138.069 C 105.879 138.767,104.950 139.801,104.400 140.366 C 103.375 141.419,102.974 141.947,101.149 144.646 C 100.572 145.501,99.457 146.855,98.673 147.656 C 97.889 148.456,96.985 149.716,96.664 150.456 C 96.343 151.195,95.150 152.790,94.013 154.000 C 92.876 155.210,91.665 156.730,91.322 157.379 C 90.769 158.424,87.105 163.079,86.425 163.600 C 86.282 163.710,85.722 164.520,85.182 165.400 L 84.200 167.000 84.082 197.000 C 83.939 233.522,83.519 230.793,89.287 230.804 C 90.449 230.807,92.300 231.084,93.400 231.421 C 94.500 231.758,96.750 232.207,98.400 232.419 C 100.050 232.631,101.991 233.085,102.714 233.428 C 103.436 233.770,104.482 233.994,105.038 233.925 L 106.049 233.800 106.014 199.505 C 105.980 166.126,106.000 165.168,106.768 163.663 C 107.654 161.925,107.289 162.034,117.800 160.386 C 120.660 159.938,123.720 159.320,124.600 159.013 C 125.480 158.706,127.438 158.345,128.952 158.211 C 130.465 158.077,132.192 157.715,132.788 157.406 C 133.385 157.097,135.297 156.718,137.037 156.563 C 138.777 156.409,140.842 156.058,141.628 155.784 C 142.413 155.511,144.753 155.065,146.828 154.795 C 148.902 154.525,151.590 154.039,152.800 153.716 C 154.010 153.393,156.440 152.946,158.200 152.725 C 159.960 152.503,162.279 151.979,163.353 151.561 C 164.478 151.123,166.299 150.800,167.645 150.800 C 168.931 150.800,170.662 150.539,171.492 150.221 C 173.507 149.447,179.404 148.400,181.744 148.400 C 182.779 148.400,184.295 148.113,185.113 147.763 C 185.931 147.413,187.860 146.887,189.400 146.595 C 190.940 146.302,193.190 145.868,194.400 145.630 C 204.039 143.731,209.441 142.800,210.820 142.800 C 211.711 142.800,212.979 142.521,213.638 142.180 C 214.297 141.840,216.235 141.401,217.945 141.206 C 219.656 141.011,221.763 140.586,222.627 140.262 C 223.492 139.938,225.640 139.461,227.400 139.203 C 229.160 138.944,232.130 138.401,234.000 137.994 C 235.870 137.588,238.750 137.129,240.400 136.975 C 242.050 136.821,243.850 136.473,244.400 136.203 C 244.950 135.933,246.188 135.590,247.150 135.443 C 251.272 134.811,251.063 134.149,245.600 130.515 C 244.390 129.710,242.471 128.275,241.336 127.326 C 240.201 126.377,239.088 125.600,238.863 125.600 C 238.637 125.600,236.956 124.369,235.126 122.864 C 233.297 121.359,231.350 119.889,230.800 119.598 C 230.250 119.307,228.564 118.064,227.053 116.835 C 225.542 115.606,224.012 114.424,223.653 114.208 C 220.865 112.535,217.578 110.228,216.798 109.398 C 216.283 108.849,215.681 108.400,215.461 108.400 C 215.242 108.400,214.027 107.500,212.763 106.400 C 211.498 105.300,210.314 104.397,210.132 104.393 C 209.739 104.384,206.929 102.502,205.796 101.488 C 204.419 100.257,195.461 93.753,192.540 91.863 C 191.001 90.868,189.492 89.752,189.187 89.385 C 188.686 88.780,184.244 85.600,183.902 85.600 C 183.824 85.600,183.544 85.816,183.280 86.080 M184.610 86.416 C 184.751 86.645,185.527 87.258,186.334 87.779 C 187.140 88.300,188.365 89.254,189.057 89.901 C 189.748 90.547,190.843 91.419,191.490 91.838 C 192.138 92.257,193.327 93.023,194.134 93.540 C 194.940 94.056,195.600 94.619,195.600 94.791 C 195.600 94.963,196.140 95.327,196.800 95.600 C 197.460 95.873,198.000 96.237,198.000 96.409 C 198.000 96.581,198.585 97.089,199.300 97.538 C 200.015 97.988,201.320 98.902,202.200 99.569 C 203.080 100.237,204.205 100.962,204.700 101.182 C 205.195 101.401,205.600 101.747,205.600 101.951 C 205.600 102.296,207.126 103.384,209.596 104.800 C 210.171 105.130,210.993 105.726,211.421 106.125 C 212.864 107.469,215.307 109.200,215.759 109.200 C 216.006 109.200,216.415 109.532,216.668 109.937 C 216.921 110.343,218.127 111.337,219.347 112.147 C 220.567 112.957,221.665 113.781,221.787 113.979 C 221.909 114.177,222.539 114.455,223.186 114.597 C 223.846 114.742,224.472 115.195,224.609 115.628 C 224.744 116.053,225.015 116.400,225.211 116.400 C 225.408 116.400,226.537 117.189,227.721 118.153 C 228.905 119.117,230.269 120.032,230.753 120.185 C 231.237 120.339,232.311 121.129,233.140 121.941 C 234.967 123.732,238.001 125.998,238.579 126.004 C 238.810 126.007,239.628 126.655,240.396 127.445 C 241.164 128.235,242.436 129.210,243.223 129.612 C 244.010 130.013,244.889 130.625,245.176 130.971 C 245.463 131.317,245.901 131.607,246.149 131.617 C 246.814 131.641,249.634 134.232,249.328 134.538 C 249.184 134.682,248.332 134.804,247.433 134.809 C 246.535 134.814,245.045 135.160,244.122 135.579 C 243.182 136.006,240.983 136.459,239.122 136.610 C 237.295 136.758,233.841 137.311,231.446 137.839 C 229.052 138.368,226.347 138.800,225.435 138.800 C 224.524 138.800,223.358 139.094,222.844 139.454 C 222.301 139.834,220.516 140.250,218.584 140.446 C 216.747 140.632,214.573 141.126,213.729 141.549 C 212.633 142.099,210.999 142.377,207.964 142.532 C 205.197 142.673,202.914 143.034,201.378 143.574 C 200.085 144.028,198.065 144.400,196.888 144.400 C 195.694 144.400,193.920 144.740,192.874 145.169 C 191.843 145.592,189.836 146.055,188.413 146.199 C 186.990 146.342,185.065 146.806,184.135 147.230 C 183.164 147.672,181.540 148.005,180.322 148.012 C 176.917 148.032,172.431 148.733,171.491 149.392 C 170.905 149.802,169.667 150.000,167.693 150.000 C 165.336 150.000,164.396 150.195,162.885 151.000 C 161.406 151.787,160.422 152.000,158.258 152.000 C 156.334 152.000,155.072 152.228,154.054 152.760 C 153.090 153.264,151.006 153.671,147.864 153.969 C 145.260 154.217,142.500 154.682,141.731 155.003 C 140.963 155.324,138.864 155.701,137.067 155.840 C 135.270 155.979,133.377 156.358,132.861 156.682 C 132.344 157.005,130.308 157.421,128.334 157.606 C 126.230 157.804,124.340 158.209,123.762 158.588 C 123.130 159.002,121.169 159.374,118.289 159.626 C 114.271 159.977,111.745 160.464,107.730 161.663 C 105.161 162.430,105.200 161.866,105.200 198.698 C 105.200 220.649,105.338 231.911,105.614 232.426 C 106.132 233.394,104.221 233.533,102.480 232.656 C 101.886 232.356,100.081 231.994,98.469 231.850 C 96.857 231.706,94.999 231.310,94.339 230.969 C 93.680 230.627,91.848 230.259,90.270 230.149 C 86.312 229.874,85.686 229.708,85.202 228.803 C 84.464 227.426,84.659 167.674,85.405 166.537 C 85.732 166.037,86.000 165.417,86.000 165.160 C 86.000 164.902,86.405 164.297,86.900 163.815 C 88.685 162.075,91.410 158.701,91.869 157.662 C 92.127 157.078,93.081 155.790,93.989 154.800 C 94.896 153.810,95.965 152.640,96.362 152.200 C 96.760 151.760,97.223 150.966,97.390 150.436 C 97.557 149.906,98.483 148.649,99.447 147.643 C 100.411 146.637,101.200 145.701,101.200 145.562 C 101.200 145.272,102.962 142.980,105.115 140.469 C 105.932 139.517,106.740 138.489,106.911 138.185 C 107.082 137.881,107.892 137.524,108.711 137.392 C 110.247 137.144,112.692 136.223,116.240 134.558 C 117.362 134.031,118.553 133.600,118.886 133.600 C 119.219 133.600,119.952 133.238,120.515 132.796 C 121.077 132.353,122.407 131.822,123.469 131.615 C 124.531 131.408,126.113 130.870,126.985 130.420 C 127.856 129.969,128.957 129.600,129.431 129.600 C 129.904 129.600,130.721 129.267,131.246 128.861 C 131.771 128.455,132.662 128.009,133.226 127.872 C 133.791 127.734,134.644 127.282,135.123 126.867 C 135.601 126.452,136.883 126.007,137.970 125.878 C 139.058 125.749,140.814 125.259,141.874 124.788 C 145.267 123.279,147.351 122.335,149.400 121.379 C 150.500 120.865,152.030 120.325,152.800 120.178 C 153.570 120.031,154.470 119.686,154.800 119.412 C 155.130 119.137,156.265 118.702,157.323 118.445 C 158.381 118.187,159.908 117.622,160.717 117.188 C 161.526 116.755,162.478 116.400,162.833 116.400 C 163.187 116.400,163.888 116.044,164.390 115.608 C 164.892 115.173,165.955 114.700,166.751 114.557 C 167.548 114.415,169.230 113.871,170.488 113.349 C 171.746 112.827,173.119 112.400,173.539 112.400 C 173.959 112.400,174.525 112.131,174.798 111.803 C 175.070 111.474,176.037 111.008,176.947 110.766 C 177.856 110.524,178.882 110.074,179.226 109.768 C 179.571 109.461,180.422 109.096,181.117 108.957 C 183.283 108.523,183.295 108.458,183.227 97.195 C 183.193 91.467,183.273 86.605,183.406 86.390 C 183.721 85.881,184.287 85.893,184.610 86.416 M299.400 126.273 C 298.714 126.655,296.794 127.049,294.917 127.193 C 292.673 127.365,291.398 127.659,290.886 128.122 C 290.467 128.501,289.487 128.800,288.664 128.800 C 286.943 128.800,280.423 129.814,278.408 130.395 C 277.643 130.616,275.303 130.913,273.208 131.054 C 270.840 131.214,268.870 131.577,267.999 132.013 C 267.229 132.399,265.339 132.848,263.799 133.010 C 262.260 133.173,260.550 133.477,260.000 133.685 C 259.450 133.894,257.584 134.315,255.854 134.622 C 254.123 134.928,252.458 135.386,252.154 135.638 C 251.687 136.026,251.600 145.320,251.600 195.000 C 251.600 246.046,251.522 253.966,251.018 254.385 C 250.306 254.976,246.430 254.647,241.800 253.602 C 240.040 253.205,237.936 252.880,237.125 252.880 C 236.313 252.880,234.783 252.600,233.725 252.257 C 232.666 251.913,229.579 251.434,226.863 251.192 C 219.667 250.550,212.552 249.617,203.600 248.143 C 201.510 247.798,198.293 247.362,196.450 247.172 C 194.608 246.983,192.178 246.567,191.050 246.249 C 189.923 245.930,187.470 245.559,185.600 245.425 C 181.530 245.132,176.869 244.523,172.857 243.760 C 171.239 243.452,168.977 243.200,167.830 243.200 C 166.684 243.200,164.408 242.844,162.773 242.409 C 161.138 241.975,158.810 241.612,157.600 241.603 C 156.390 241.595,153.960 241.222,152.200 240.776 C 150.440 240.329,147.200 239.868,145.000 239.752 C 142.800 239.635,140.360 239.375,139.577 239.175 C 138.273 238.841,132.754 238.112,124.600 237.197 C 122.840 237.000,120.230 236.566,118.800 236.233 C 117.370 235.900,115.528 235.622,114.707 235.614 C 113.887 235.606,111.957 235.384,110.420 235.121 C 107.652 234.646,106.359 234.898,107.703 235.650 C 108.086 235.864,108.400 236.269,108.400 236.549 C 108.400 236.829,109.678 238.395,111.240 240.029 C 112.803 241.663,115.412 244.620,117.038 246.600 C 120.173 250.417,122.261 252.859,125.217 256.167 C 127.975 259.253,130.961 262.883,131.662 264.000 C 132.008 264.550,133.600 266.440,135.200 268.200 C 136.801 269.960,139.423 273.020,141.027 275.000 C 142.631 276.980,144.851 279.590,145.961 280.800 C 147.072 282.010,147.985 283.137,147.990 283.303 C 147.996 283.470,148.997 284.730,150.215 286.103 C 154.271 290.675,155.883 292.563,159.862 297.400 C 162.033 300.040,164.303 302.687,164.905 303.282 C 165.507 303.877,166.000 304.631,166.000 304.958 C 166.000 305.760,166.513 306.025,167.219 305.589 C 167.700 305.292,167.835 303.071,168.000 292.715 L 168.200 280.200 169.842 280.080 C 170.902 280.002,172.734 280.393,175.007 281.180 C 176.943 281.851,178.837 282.400,179.215 282.400 C 179.593 282.400,180.114 282.656,180.374 282.969 C 180.634 283.282,181.545 283.656,182.400 283.800 C 183.254 283.944,184.632 284.408,185.461 284.831 C 186.291 285.254,187.238 285.600,187.567 285.600 C 188.358 285.600,195.341 287.875,197.511 288.840 C 198.452 289.258,199.572 289.600,200.001 289.600 C 200.430 289.600,201.370 289.959,202.090 290.399 C 202.811 290.838,203.743 291.198,204.162 291.199 C 205.013 291.200,213.134 293.728,215.000 294.572 C 216.909 295.435,226.136 298.624,228.400 299.203 C 229.893 299.584,233.720 300.835,237.000 302.013 C 238.100 302.408,240.890 303.314,243.200 304.027 C 245.510 304.740,248.068 305.655,248.884 306.062 C 250.856 307.043,252.210 306.993,253.285 305.900 C 253.772 305.405,254.568 304.730,255.055 304.400 C 257.366 302.833,265.668 295.839,268.704 292.902 C 269.215 292.408,270.120 291.739,270.716 291.416 C 271.312 291.093,272.700 289.991,273.800 288.969 C 274.900 287.946,276.610 286.457,277.600 285.661 C 278.590 284.865,280.500 283.266,281.844 282.107 C 283.189 280.948,284.429 280.000,284.600 280.000 C 284.771 280.000,285.665 279.325,286.587 278.500 C 288.914 276.418,294.343 271.924,295.407 271.200 C 296.654 270.351,300.534 266.993,303.285 264.382 L 305.622 262.164 305.624 194.214 C 305.626 139.353,305.528 126.201,305.113 125.938 C 304.213 125.367,300.652 125.576,299.400 126.273 M304.467 126.204 C 304.908 126.374,304.986 138.044,304.919 194.104 L 304.839 261.800 301.667 264.800 C 298.322 267.963,296.373 269.680,294.627 271.000 C 294.046 271.440,293.171 272.182,292.685 272.650 C 292.198 273.117,290.471 274.507,288.846 275.739 C 287.221 276.970,285.635 278.342,285.323 278.789 C 285.010 279.235,284.555 279.600,284.311 279.600 C 284.067 279.600,283.582 279.870,283.234 280.201 C 282.885 280.531,281.250 281.901,279.600 283.246 C 275.595 286.510,275.692 286.424,273.356 288.711 C 272.231 289.811,270.971 290.824,270.556 290.962 C 270.140 291.100,268.900 292.026,267.800 293.019 C 262.280 298.005,256.693 302.649,254.498 304.078 C 253.925 304.451,253.300 305.036,253.108 305.378 C 252.666 306.169,250.650 306.183,249.262 305.405 C 247.957 304.673,241.565 302.601,239.446 302.221 C 238.591 302.069,237.244 301.596,236.452 301.172 C 235.660 300.747,234.687 300.400,234.290 300.400 C 233.893 300.400,232.872 300.045,232.021 299.611 C 231.170 299.176,229.692 298.705,228.737 298.563 C 227.782 298.422,226.583 298.045,226.074 297.726 C 225.564 297.408,224.001 296.907,222.599 296.614 C 221.197 296.321,219.639 295.793,219.136 295.440 C 218.633 295.088,217.836 294.800,217.365 294.800 C 216.894 294.800,216.050 294.440,215.491 294.000 C 214.931 293.560,214.189 293.200,213.841 293.200 C 213.493 293.200,212.262 292.831,211.104 292.380 C 209.947 291.929,207.660 291.295,206.023 290.972 C 204.385 290.648,202.765 290.133,202.423 289.826 C 202.080 289.519,201.080 289.140,200.200 288.984 C 199.320 288.829,198.240 288.387,197.800 288.003 C 197.360 287.619,196.112 287.191,195.026 287.050 C 193.940 286.910,192.652 286.533,192.162 286.212 C 191.673 285.891,190.152 285.449,188.783 285.228 C 187.413 285.008,185.988 284.552,185.616 284.215 C 185.244 283.878,184.110 283.447,183.098 283.258 C 182.085 283.069,180.961 282.618,180.600 282.257 C 180.238 281.896,179.537 281.600,179.040 281.600 C 178.544 281.600,177.072 281.168,175.769 280.639 C 172.828 279.447,169.217 278.949,168.048 279.574 C 167.212 280.022,167.200 280.206,167.200 292.190 C 167.200 303.544,166.945 306.409,166.138 304.125 C 165.997 303.726,165.453 302.950,164.929 302.400 C 161.244 298.530,160.400 297.590,160.400 297.357 C 160.400 297.053,153.113 288.253,151.727 286.884 C 151.217 286.380,150.800 285.807,150.800 285.611 C 150.800 285.414,150.459 285.146,150.043 285.014 C 149.627 284.882,149.083 284.284,148.835 283.687 C 148.587 283.089,147.389 281.520,146.173 280.200 C 144.956 278.880,143.385 277.015,142.680 276.055 C 141.976 275.095,140.545 273.400,139.500 272.289 C 138.455 271.178,137.594 270.164,137.588 270.035 C 137.581 269.906,136.393 268.540,134.948 267.000 C 133.504 265.460,132.064 263.705,131.750 263.100 C 131.436 262.495,131.032 262.000,130.851 262.000 C 130.670 262.000,130.360 261.660,130.161 261.245 C 129.963 260.830,128.571 259.132,127.070 257.472 C 125.568 255.812,123.710 253.646,122.941 252.659 C 122.172 251.671,121.285 250.765,120.971 250.644 C 120.657 250.524,120.400 250.220,120.400 249.970 C 120.400 249.255,117.284 245.615,111.753 239.869 C 108.132 236.108,108.249 235.627,112.674 236.092 C 115.742 236.415,117.609 236.735,121.200 237.552 C 122.190 237.777,125.340 238.164,128.200 238.412 C 131.060 238.660,133.850 239.029,134.400 239.231 C 134.950 239.434,138.587 239.841,142.482 240.136 C 146.598 240.448,149.806 240.873,150.141 241.151 C 150.457 241.413,152.580 241.738,154.858 241.872 C 157.174 242.008,160.058 242.455,161.400 242.885 C 162.720 243.309,165.870 243.807,168.400 243.994 C 170.930 244.180,173.487 244.520,174.082 244.750 C 175.374 245.248,182.330 246.000,185.641 246.000 C 186.937 246.000,189.033 246.347,190.298 246.772 C 191.564 247.196,194.130 247.662,196.000 247.807 C 197.870 247.952,200.122 248.308,201.004 248.598 C 201.886 248.888,204.919 249.323,207.745 249.564 C 210.570 249.806,213.033 250.097,213.218 250.211 C 213.981 250.683,218.194 251.203,224.545 251.609 C 229.126 251.902,231.574 252.227,232.174 252.620 C 232.659 252.938,234.484 253.305,236.228 253.435 C 237.973 253.565,240.210 253.923,241.200 254.232 C 244.408 255.230,250.440 255.666,251.493 254.976 L 252.400 254.382 252.400 195.230 L 252.400 136.078 253.660 135.639 C 254.353 135.398,255.748 135.199,256.760 135.198 C 257.772 135.196,259.140 134.912,259.800 134.566 C 260.460 134.219,262.506 133.779,264.347 133.588 C 266.303 133.384,267.966 132.992,268.351 132.645 C 268.785 132.252,270.639 131.902,273.804 131.615 C 276.442 131.376,279.680 130.919,281.000 130.600 C 282.320 130.281,284.750 129.905,286.400 129.765 C 288.050 129.624,290.120 129.182,291.000 128.782 C 291.880 128.382,293.923 127.961,295.540 127.847 C 297.157 127.733,298.874 127.381,299.356 127.065 C 300.740 126.159,303.248 125.736,304.467 126.204 M264.200 344.697 C 263.540 344.793,262.820 345.017,262.600 345.196 C 262.380 345.375,261.425 345.729,260.477 345.982 C 251.350 348.423,251.742 364.756,261.006 368.023 C 264.651 369.309,265.346 369.350,267.973 368.441 C 269.309 367.979,270.636 367.600,270.920 367.600 C 272.166 367.600,275.154 363.635,275.896 361.000 C 277.974 353.612,275.259 347.504,269.043 345.584 C 265.444 344.472,265.582 344.498,264.200 344.697 M192.887 345.500 C 192.331 346.855,192.548 367.908,193.124 368.480 C 194.969 370.312,205.032 368.592,208.885 365.787 C 213.940 362.106,214.487 351.223,209.805 347.487 C 206.896 345.166,193.663 343.611,192.887 345.500 M205.200 346.488 C 208.314 347.179,210.705 348.622,211.018 350.000 C 211.142 350.550,211.518 352.050,211.853 353.334 C 212.605 356.222,211.675 362.237,210.230 363.837 C 208.530 365.719,205.669 367.056,202.052 367.659 C 196.716 368.547,195.484 368.538,194.294 367.603 L 193.200 366.742 193.200 356.794 C 193.200 344.753,192.847 345.451,198.800 345.732 C 200.890 345.831,203.770 346.171,205.200 346.488 M268.974 346.424 C 274.232 347.489,277.468 354.762,275.193 360.400 C 274.705 361.610,274.138 363.185,273.934 363.900 C 273.730 364.615,273.307 365.200,272.995 365.200 C 272.683 365.200,272.247 365.539,272.025 365.953 C 271.747 366.472,270.814 366.858,269.006 367.199 C 267.567 367.470,266.292 367.852,266.171 368.046 C 265.839 368.584,264.082 368.469,263.086 367.845 C 262.599 367.540,261.515 367.169,260.677 367.022 C 256.053 366.211,253.805 360.174,255.384 352.807 C 256.003 349.918,258.623 346.818,260.477 346.782 C 260.985 346.772,261.940 346.509,262.600 346.197 C 263.868 345.598,265.117 345.643,268.974 346.424 M197.600 348.258 C 196.150 348.824,196.000 349.634,196.000 356.876 C 196.000 365.657,195.969 365.600,200.676 365.600 L 203.752 365.600 205.813 363.368 C 209.830 359.017,209.910 354.480,206.051 350.005 L 204.503 348.211 201.351 348.117 C 199.618 348.066,197.930 348.129,197.600 348.258 M262.304 349.364 C 254.882 353.774,257.310 365.200,265.670 365.200 C 267.185 365.200,269.888 363.766,270.329 362.730 C 270.400 362.563,270.895 361.782,271.429 360.995 C 275.545 354.931,268.357 345.768,262.304 349.364 M205.451 350.633 C 208.280 353.670,208.826 359.992,206.392 361.512 C 205.956 361.784,205.600 362.278,205.600 362.609 C 205.600 364.637,198.701 365.736,197.423 363.911 C 196.375 362.415,196.520 350.680,197.600 349.600 C 199.292 347.908,203.418 348.450,205.451 350.633 M268.477 350.300 C 272.394 352.584,272.496 360.810,268.639 363.338 C 266.188 364.944,261.768 364.042,260.157 361.606 C 255.922 355.207,262.219 346.651,268.477 350.300 M234.900 351.653 C 234.233 352.329,234.265 353.790,234.958 354.365 C 235.265 354.620,235.640 355.489,235.792 356.296 C 235.943 357.103,236.386 358.401,236.777 359.181 C 237.168 359.962,237.600 361.334,237.737 362.231 C 237.875 363.127,238.536 365.071,239.206 366.550 L 240.426 369.239 242.713 369.120 L 245.000 369.000 246.273 366.400 C 246.974 364.970,247.671 363.170,247.822 362.400 C 247.973 361.630,248.427 360.452,248.831 359.782 C 249.234 359.111,249.690 357.761,249.843 356.782 C 249.996 355.802,250.450 354.576,250.852 354.057 C 252.274 352.222,250.576 350.750,248.011 351.596 C 246.373 352.137,245.600 353.275,245.600 355.146 C 245.600 356.252,244.744 359.614,243.931 361.700 C 243.324 363.259,242.135 363.148,241.797 361.500 C 241.651 360.785,241.186 359.056,240.765 357.658 C 240.344 356.260,240.000 354.527,240.000 353.807 C 240.000 351.838,236.271 350.263,234.900 351.653 M281.729 351.506 C 280.030 351.783,279.983 352.162,280.094 364.648 L 280.200 376.600 282.332 376.722 C 285.474 376.902,285.646 376.635,285.345 372.046 C 285.024 367.144,285.429 366.573,288.235 367.975 C 290.717 369.214,293.920 368.360,295.976 365.911 L 297.305 364.328 297.318 359.617 L 297.332 354.905 295.788 353.361 C 293.630 351.203,289.455 350.822,287.587 352.613 L 286.432 353.719 285.116 352.730 C 283.552 351.554,282.894 351.317,281.729 351.506 M219.931 352.911 C 216.419 355.570,215.402 363.213,218.200 365.912 C 221.144 368.751,224.765 369.651,228.148 368.385 C 232.239 366.854,231.348 365.204,226.424 365.194 C 223.125 365.187,222.762 365.061,222.023 363.657 C 221.288 362.263,221.759 362.091,226.738 361.931 C 233.516 361.713,234.555 358.465,229.498 353.300 L 227.833 351.600 224.748 351.600 C 221.880 351.600,221.540 351.693,219.931 352.911 M302.451 353.002 C 299.002 356.117,300.547 360.154,305.737 361.589 C 307.760 362.148,308.744 363.325,308.255 364.600 C 308.049 365.137,307.442 365.236,304.777 365.166 C 301.141 365.070,299.738 365.720,300.805 367.006 C 303.948 370.793,313.200 368.119,313.200 363.425 C 313.200 361.063,312.266 359.849,309.810 359.018 C 306.065 357.751,304.714 355.956,306.565 354.706 C 307.183 354.289,310.088 354.342,310.787 354.783 C 311.576 355.282,312.400 354.558,312.400 353.365 C 312.400 350.987,304.981 350.716,302.451 353.002 M239.080 352.867 C 239.366 353.104,239.603 354.041,239.606 354.949 C 239.615 357.371,241.315 363.209,242.147 363.674 C 244.150 364.795,246.107 360.106,246.388 353.510 C 246.413 352.908,248.914 351.942,249.843 352.175 C 250.992 352.463,251.072 353.230,250.049 354.155 C 249.615 354.549,249.190 355.653,249.041 356.775 C 248.899 357.842,248.522 358.933,248.202 359.198 C 247.883 359.463,247.518 360.337,247.392 361.140 C 247.266 361.943,246.824 363.320,246.411 364.200 C 245.998 365.080,245.444 366.385,245.181 367.100 C 244.741 368.296,244.563 368.400,242.951 368.400 C 241.988 368.400,241.075 368.410,240.921 368.423 C 240.768 368.436,240.426 367.710,240.160 366.811 C 239.894 365.911,239.473 364.928,239.223 364.627 C 238.973 364.326,238.585 362.939,238.360 361.545 C 238.136 360.151,237.703 358.735,237.399 358.399 C 237.095 358.063,236.672 357.012,236.459 356.064 C 236.246 355.116,235.756 354.110,235.371 353.828 C 234.922 353.500,234.768 353.062,234.942 352.608 C 235.241 351.827,238.039 352.002,239.080 352.867 M229.081 353.678 C 229.806 354.382,230.400 355.149,230.400 355.384 C 230.400 355.619,230.742 356.449,231.159 357.229 C 232.883 360.444,231.792 361.200,225.430 361.200 C 220.524 361.200,219.615 362.124,221.977 364.711 C 223.128 365.971,223.232 366.000,226.577 366.000 C 230.477 366.000,231.521 366.881,228.209 367.378 C 227.224 367.525,226.314 367.816,226.186 368.023 C 225.879 368.519,223.715 368.510,223.407 368.011 C 223.274 367.797,222.470 367.434,221.619 367.205 C 219.016 366.504,217.710 364.945,217.582 362.382 C 217.309 356.914,217.427 356.442,219.588 354.336 L 221.576 352.400 224.669 352.400 C 227.606 352.400,227.828 352.464,229.081 353.678 M283.861 353.015 C 283.991 353.353,284.712 353.887,285.463 354.201 L 286.829 354.771 286.014 355.586 C 285.566 356.034,285.200 356.648,285.200 356.951 C 285.200 357.254,284.930 357.726,284.600 358.000 C 283.936 358.551,283.779 361.016,284.384 361.390 C 284.595 361.521,285.083 362.626,285.467 363.847 C 286.139 365.978,286.214 366.057,287.334 365.833 C 287.975 365.705,288.993 365.600,289.596 365.600 C 294.733 365.600,294.617 354.821,289.475 354.323 C 288.508 354.230,288.200 354.007,288.200 353.400 C 288.200 351.892,293.825 352.252,295.500 353.868 L 296.800 355.121 296.800 359.688 C 296.800 364.000,296.747 364.302,295.848 365.083 C 295.325 365.539,294.827 366.120,294.742 366.375 C 294.430 367.310,289.327 367.848,288.032 367.082 C 284.404 364.940,283.387 367.151,284.631 374.474 C 284.894 376.020,283.578 376.762,281.340 376.332 C 280.623 376.194,279.924 354.617,280.581 352.905 C 280.864 352.168,283.571 352.259,283.861 353.015 M311.511 353.227 C 311.611 353.750,311.249 353.830,309.315 353.710 C 302.832 353.309,303.403 357.930,310.079 359.895 C 313.034 360.764,313.302 365.465,310.473 366.804 C 309.007 367.498,303.667 367.779,302.267 367.235 C 300.116 366.399,301.230 365.790,304.639 365.936 C 308.386 366.098,309.256 365.551,308.903 363.258 C 308.735 362.165,308.429 361.813,307.248 361.357 C 301.145 359.002,299.668 356.670,302.453 353.786 L 303.800 352.391 307.595 352.495 C 310.668 352.580,311.414 352.719,311.511 353.227 M222.272 354.907 C 219.565 357.459,220.604 359.600,224.550 359.600 C 228.353 359.600,229.958 357.259,227.662 355.060 C 225.814 353.289,224.041 353.238,222.272 354.907 M226.769 355.436 C 228.848 357.185,227.798 358.400,224.210 358.400 C 221.426 358.400,220.798 357.452,222.453 355.746 C 224.018 354.131,225.124 354.051,226.769 355.436 M291.559 356.614 C 294.204 359.627,292.329 364.800,288.592 364.800 C 284.519 364.800,283.691 356.251,287.690 355.484 C 289.812 355.076,290.345 355.232,291.559 356.614 " stroke="none" fill="#74ace4" fill-rule="evenodd"></path></g></svg>